<svg width="21" height="14" viewBox="0 0 21 14" fill="none" xmlns="http://www.w3.org/2000/svg">
<path d="M7.93457 13.9316L6.53457 12.5316L8.28457 10.7316C6.15124 10.4483 4.3929 9.86497 3.00957 8.98164C1.62624 8.09831 0.93457 7.08164 0.93457 5.93164C0.93457 4.54831 1.89724 3.36897 3.82257 2.39364C5.74724 1.41897 8.1179 0.931641 10.9346 0.931641C13.7512 0.931641 16.1222 1.41897 18.0476 2.39364C19.9722 3.36897 20.9346 4.54831 20.9346 5.93164C20.9346 6.96497 20.3802 7.88997 19.2716 8.70664C18.1636 9.52331 16.7179 10.1316 14.9346 10.5316V8.48164C16.2179 8.14831 17.2052 7.73564 17.8966 7.24364C18.5886 6.75231 18.9346 6.31497 18.9346 5.93164C18.9346 5.39831 18.2222 4.76497 16.7976 4.03164C15.3722 3.29831 13.4179 2.93164 10.9346 2.93164C8.45124 2.93164 6.49724 3.29831 5.07257 4.03164C3.64724 4.76497 2.93457 5.39831 2.93457 5.93164C2.93457 6.33164 3.35957 6.81097 4.20957 7.36964C5.05957 7.92764 6.2679 8.34831 7.83457 8.63164L6.53457 7.33164L7.93457 5.93164L11.9346 9.93164L7.93457 13.9316Z" fill="#F9F9F9"/>
</svg>
