<svg width="13" height="13" viewBox="0 0 13 13" fill="none" xmlns="http://www.w3.org/2000/svg">
<path d="M7.69978 6.99573L11.9956 2.70926C12.1837 2.52111 12.2894 2.26593 12.2894 1.99985C12.2894 1.73376 12.1837 1.47858 11.9956 1.29043C11.8075 1.10228 11.5524 0.996582 11.2863 0.996582C11.0203 0.996582 10.7651 1.10228 10.577 1.29043L6.29114 5.58689L2.00528 1.29043C1.81716 1.10228 1.56201 0.996582 1.29596 0.996582C1.02992 0.996582 0.774772 1.10228 0.58665 1.29043C0.398529 1.47858 0.292843 1.73376 0.292843 1.99985C0.292843 2.26593 0.398529 2.52111 0.58665 2.70926L4.8825 6.99573L0.58665 11.2822C0.493012 11.3751 0.41869 11.4856 0.367971 11.6074C0.317251 11.7291 0.291138 11.8597 0.291138 11.9916C0.291138 12.1235 0.317251 12.2541 0.367971 12.3759C0.41869 12.4976 0.493012 12.6081 0.58665 12.701C0.679524 12.7947 0.790018 12.869 0.911759 12.9197C1.0335 12.9705 1.16408 12.9966 1.29596 12.9966C1.42785 12.9966 1.55843 12.9705 1.68017 12.9197C1.80191 12.869 1.91241 12.7947 2.00528 12.701L6.29114 8.40457L10.577 12.701C10.6699 12.7947 10.7804 12.869 10.9021 12.9197C11.0238 12.9705 11.1544 12.9966 11.2863 12.9966C11.4182 12.9966 11.5488 12.9705 11.6705 12.9197C11.7923 12.869 11.9028 12.7947 11.9956 12.701C12.0893 12.6081 12.1636 12.4976 12.2143 12.3759C12.265 12.2541 12.2911 12.1235 12.2911 11.9916C12.2911 11.8597 12.265 11.7291 12.2143 11.6074C12.1636 11.4856 12.0893 11.3751 11.9956 11.2822L7.69978 6.99573Z" fill="black"/>
</svg>
