<svg width="25" height="25" viewBox="0 0 25 25" fill="none" xmlns="http://www.w3.org/2000/svg">
<path d="M19.2775 13.2975V11.0232C19.2773 10.5979 19.1525 10.1812 18.9172 9.8198C18.6819 9.45841 18.3454 9.1667 17.9455 8.97747L13.2775 6.76032V5.04604H14.4775C15.1375 5.04604 15.6775 4.53175 15.6775 3.90318C15.6775 3.27461 15.1375 2.76032 14.4775 2.76032H13.2775V1.61747C13.2775 0.988895 12.7375 0.474609 12.0775 0.474609C11.4175 0.474609 10.8775 0.988895 10.8775 1.61747V2.76032H9.67752C9.01751 2.76032 8.47751 3.27461 8.47751 3.90318C8.47751 4.53175 9.01751 5.04604 9.67752 5.04604H10.8775V6.76032L6.20952 8.9889C5.80966 9.17813 5.47316 9.46984 5.23785 9.83123C5.00254 10.1926 4.87775 10.6094 4.87751 11.0346V13.3089L1.50551 14.7375C0.641515 15.0918 0.0775146 15.9146 0.0775146 16.8175V22.1889C0.0775146 23.446 1.15751 24.4746 2.47751 24.4746H9.67752V21.1718C9.67752 20.0289 10.4935 18.9775 11.6695 18.7946C12.014 18.738 12.3674 18.7538 12.7049 18.8408C13.0423 18.9278 13.3557 19.084 13.6232 19.2985C13.8907 19.5129 14.1057 19.7804 14.2533 20.0823C14.4008 20.3842 14.4774 20.7131 14.4775 21.046V24.4746H21.6775C22.9975 24.4746 24.0775 23.446 24.0775 22.1889V16.8175C24.0775 15.9146 23.5135 15.0918 22.6495 14.726L19.2775 13.2975ZM12.0775 14.7603C11.0815 14.7603 10.2775 13.9946 10.2775 13.046C10.2775 12.0975 11.0815 11.3318 12.0775 11.3318C13.0735 11.3318 13.8775 12.0975 13.8775 13.046C13.8775 13.9946 13.0735 14.7603 12.0775 14.7603Z" fill="black"/>
</svg>
