<svg width="25" height="25" viewBox="0 0 25 25" fill="none" xmlns="http://www.w3.org/2000/svg">
<path d="M9.5411 0.474609H1.5411C1.18748 0.474609 0.848336 0.615085 0.598288 0.865134C0.348239 1.11518 0.207764 1.45432 0.207764 1.80794V9.80794C0.207764 10.1616 0.348239 10.5007 0.598288 10.7508C0.848336 11.0008 1.18748 11.1413 1.5411 11.1413H9.5411C9.89472 11.1413 10.2339 11.0008 10.4839 10.7508C10.734 10.5007 10.8744 10.1616 10.8744 9.80794V1.80794C10.8744 1.45432 10.734 1.11518 10.4839 0.865134C10.2339 0.615085 9.89472 0.474609 9.5411 0.474609ZM22.8744 13.8079H14.8744C14.5208 13.8079 14.1817 13.9484 13.9316 14.1985C13.6816 14.4485 13.5411 14.7877 13.5411 15.1413V23.1413C13.5411 23.4949 13.6816 23.834 13.9316 24.0841C14.1817 24.3341 14.5208 24.4746 14.8744 24.4746H22.8744C23.2281 24.4746 23.5672 24.3341 23.8172 24.0841C24.0673 23.834 24.2078 23.4949 24.2078 23.1413V15.1413C24.2078 14.7877 24.0673 14.4485 23.8172 14.1985C23.5672 13.9484 23.2281 13.8079 22.8744 13.8079ZM18.8744 0.474609C15.9331 0.474609 13.5411 2.86661 13.5411 5.80794C13.5411 8.74928 15.9331 11.1413 18.8744 11.1413C21.8158 11.1413 24.2078 8.74928 24.2078 5.80794C24.2078 2.86661 21.8158 0.474609 18.8744 0.474609ZM5.5411 13.8079C2.59976 13.8079 0.207764 16.1999 0.207764 19.1413C0.207764 22.0826 2.59976 24.4746 5.5411 24.4746C8.48243 24.4746 10.8744 22.0826 10.8744 19.1413C10.8744 16.1999 8.48243 13.8079 5.5411 13.8079Z" fill="black"/>
</svg>
