<svg width="68" height="90" viewBox="0 0 68 90" fill="none" xmlns="http://www.w3.org/2000/svg">
<path d="M67.3431 33.683C67.3431 48.9715 46.8767 76.19 37.903 87.4202C35.7514 90.0966 31.7631 90.0966 29.6115 87.4202C20.4804 76.19 0.171509 48.9715 0.171509 33.683C0.171509 15.1338 15.2081 0.0971985 33.7573 0.0971985C52.2994 0.0971985 67.3431 15.1338 67.3431 33.683Z" fill="#334756"/>
<path d="M42.4476 30.5972V25.9334L35.2057 22.3124V20.1398H38.1025V17.2431H35.2057V14.3463H32.3089V17.2431H29.4121V20.1398H32.3089V22.3124L25.067 25.9334V30.5972L19.2734 33.1753V44.7624H30.8605V40.4172C30.8605 38.824 32.1641 37.5205 33.7573 37.5205C35.3505 37.5205 36.6541 38.824 36.6541 40.4172V44.7624H48.2412V33.1753L42.4476 30.5972ZM33.7573 32.4511C32.5551 32.4511 31.5847 31.4807 31.5847 30.2785C31.5847 29.0764 32.5551 28.106 33.7573 28.106C34.9595 28.106 35.9299 29.0764 35.9299 30.2785C35.9299 31.4807 34.9595 32.4511 33.7573 32.4511Z" fill="#C3E0C8"/>
</svg>
