<svg width="192" height="75" viewBox="0 0 192 75" fill="none" xmlns="http://www.w3.org/2000/svg">
<path d="M177.271 33.0555C177.271 42.5027 164.624 59.3219 159.079 66.2614C157.75 67.9152 155.285 67.9152 153.956 66.2614C148.313 59.3219 135.764 42.5027 135.764 33.0555C135.764 21.5934 145.055 12.3018 156.517 12.3018C167.975 12.3018 177.271 21.5934 177.271 33.0555Z" fill="#44646E"/>
<path d="M161.886 31.1533V28.2714L157.411 26.0338V24.6913H159.201V22.9013H157.411V21.1113H155.621V22.9013H153.831V24.6913H155.621V26.0338L151.146 28.2714V31.1533L147.566 32.7464V39.9064H154.726V37.2214C154.726 36.2369 155.532 35.4314 156.516 35.4314C157.501 35.4314 158.306 36.2369 158.306 37.2214V39.9064H165.466V32.7464L161.886 31.1533ZM156.516 32.2989C155.774 32.2989 155.174 31.6992 155.174 30.9564C155.174 30.2135 155.774 29.6139 156.516 29.6139C157.259 29.6139 157.859 30.2135 157.859 30.9564C157.859 31.6992 157.259 32.2989 156.516 32.2989Z" fill="#C3E0C8"/>
<path d="M10.5447 35.1569H8.68528C8.63225 34.8519 8.53448 34.5818 8.39196 34.3465C8.24944 34.1079 8.07212 33.9057 7.86 33.74C7.64788 33.5742 7.40592 33.45 7.13414 33.3671C6.86568 33.2809 6.57567 33.2378 6.26412 33.2378C5.71061 33.2378 5.22008 33.377 4.79252 33.6555C4.36497 33.9305 4.03021 34.3349 3.78826 34.8685C3.54631 35.3988 3.42534 36.0468 3.42534 36.8124C3.42534 37.5913 3.54631 38.2475 3.78826 38.7812C4.03353 39.3115 4.36828 39.7125 4.79252 39.9843C5.22008 40.2528 5.70895 40.387 6.25914 40.387C6.56407 40.387 6.84911 40.3472 7.11426 40.2677C7.38272 40.1848 7.62302 40.0638 7.83514 39.9047C8.05057 39.7456 8.23121 39.5501 8.37704 39.3181C8.52619 39.0861 8.62894 38.8209 8.68528 38.5226L10.5447 38.5326C10.4751 39.0165 10.3242 39.4706 10.0922 39.8948C9.86355 40.319 9.5636 40.6936 9.19238 41.0184C8.82117 41.3399 8.38699 41.5918 7.88983 41.7741C7.39267 41.953 6.84082 42.0425 6.23429 42.0425C5.3394 42.0425 4.54063 41.8354 3.83798 41.4211C3.13533 41.0068 2.58182 40.4085 2.17747 39.6263C1.77311 38.8441 1.57093 37.9062 1.57093 36.8124C1.57093 35.7153 1.77477 34.7774 2.18244 33.9985C2.59011 33.2163 3.14527 32.618 3.84792 32.2037C4.55057 31.7894 5.34603 31.5823 6.23429 31.5823C6.80105 31.5823 7.32804 31.6618 7.81525 31.8209C8.30247 31.98 8.73665 32.2137 9.11781 32.5219C9.49896 32.8269 9.81217 33.2014 10.0574 33.6455C10.306 34.0863 10.4684 34.5901 10.5447 35.1569ZM13.9539 37.4289V41.9033H12.1542V31.7215H13.9142V35.5645H14.0036C14.1826 35.1337 14.4594 34.7939 14.8339 34.5454C15.2117 34.2935 15.6923 34.1675 16.2757 34.1675C16.806 34.1675 17.2683 34.2786 17.6627 34.5006C18.0571 34.7227 18.3621 35.0475 18.5775 35.4751C18.7963 35.9026 18.9056 36.4246 18.9056 37.0411V41.9033H17.1059V37.3195C17.1059 36.8058 16.9733 36.4064 16.7082 36.1214C16.4463 35.833 16.0785 35.6888 15.6045 35.6888C15.2863 35.6888 15.0013 35.7584 14.7494 35.8976C14.5008 36.0335 14.3052 36.2307 14.1627 36.4893C14.0235 36.7478 13.9539 37.061 13.9539 37.4289ZM20.7401 41.9033V34.267H22.4852V35.5397H22.5647C22.7039 35.0989 22.9426 34.7591 23.2806 34.5205C23.622 34.2786 24.0115 34.1576 24.449 34.1576C24.5484 34.1576 24.6594 34.1626 24.782 34.1725C24.908 34.1791 25.0124 34.1907 25.0953 34.2073V35.8628C25.019 35.8363 24.8981 35.8131 24.7323 35.7932C24.5699 35.77 24.4125 35.7584 24.26 35.7584C23.9319 35.7584 23.6369 35.8297 23.3751 35.9722C23.1166 36.1114 22.9127 36.3053 22.7636 36.5539C22.6144 36.8025 22.5399 37.0892 22.5399 37.414V41.9033H20.7401ZM28.3517 42.0574C27.8677 42.0574 27.4319 41.9713 27.0441 41.7989C26.6597 41.6233 26.3547 41.3647 26.1294 41.0233C25.9073 40.682 25.7963 40.261 25.7963 39.7606C25.7963 39.3297 25.8758 38.9734 26.0349 38.6917C26.194 38.4099 26.4111 38.1846 26.6862 38.0155C26.9613 37.8465 27.2712 37.7189 27.6159 37.6327C27.9639 37.5432 28.3235 37.4786 28.6947 37.4388C29.1421 37.3924 29.5051 37.351 29.7835 37.3145C30.0619 37.2748 30.2641 37.2151 30.39 37.1356C30.5193 37.0527 30.5839 36.9251 30.5839 36.7528V36.7229C30.5839 36.3484 30.4729 36.0584 30.2508 35.8529C30.0287 35.6474 29.7089 35.5447 29.2913 35.5447C28.8505 35.5447 28.5008 35.6408 28.2423 35.833C27.9871 36.0252 27.8147 36.2523 27.7252 36.5141L26.0448 36.2755C26.1774 35.8115 26.3962 35.4237 26.7011 35.1121C27.006 34.7973 27.3789 34.5619 27.8197 34.4062C28.2605 34.2471 28.7477 34.1675 29.2813 34.1675C29.6492 34.1675 30.0155 34.2106 30.3801 34.2968C30.7446 34.383 31.0777 34.5255 31.3794 34.7243C31.681 34.9199 31.9229 35.1867 32.1052 35.5248C32.2908 35.8628 32.3836 36.2854 32.3836 36.7925V41.9033H30.6535V40.8543H30.5938C30.4845 41.0664 30.3303 41.2653 30.1315 41.4509C29.9359 41.6332 29.689 41.7807 29.3907 41.8934C29.0957 42.0028 28.7494 42.0574 28.3517 42.0574ZM28.819 40.735C29.1802 40.735 29.4935 40.6637 29.7586 40.5212C30.0238 40.3754 30.2276 40.1831 30.3701 39.9445C30.516 39.7059 30.5889 39.4457 30.5889 39.164V38.2641C30.5325 38.3105 30.4364 38.3536 30.3005 38.3934C30.1679 38.4331 30.0188 38.468 29.8531 38.4978C29.6874 38.5276 29.5233 38.5541 29.3609 38.5773C29.1985 38.6005 29.0576 38.6204 28.9383 38.637C28.6698 38.6734 28.4295 38.7331 28.2174 38.816C28.0053 38.8988 27.8379 39.0148 27.7153 39.164C27.5927 39.3098 27.5313 39.4987 27.5313 39.7307C27.5313 40.0622 27.6523 40.3124 27.8943 40.4814C28.1362 40.6505 28.4445 40.735 28.819 40.735ZM28.6698 33.2627L29.7835 30.9907H31.5434L30.0171 33.2627H28.6698ZM34.1933 41.9033V34.267H35.9134V35.5645H36.0029C36.162 35.127 36.4255 34.7857 36.7934 34.5404C37.1613 34.2918 37.6005 34.1675 38.1109 34.1675C38.6279 34.1675 39.0638 34.2935 39.4184 34.5454C39.7764 34.7939 40.0283 35.1337 40.1741 35.5645H40.2536C40.4227 35.1403 40.7077 34.8022 41.1088 34.5503C41.5131 34.2951 41.992 34.1675 42.5455 34.1675C43.2482 34.1675 43.8216 34.3896 44.2657 34.8337C44.7098 35.2778 44.9319 35.9258 44.9319 36.7776V41.9033H43.1272V37.056C43.1272 36.5821 43.0013 36.2357 42.7494 36.017C42.4975 35.7949 42.1892 35.6839 41.8247 35.6839C41.3905 35.6839 41.0508 35.8197 40.8055 36.0915C40.5635 36.36 40.4426 36.7097 40.4426 37.1405V41.9033H38.6776V36.9814C38.6776 36.587 38.5583 36.2722 38.3197 36.0368C38.0844 35.8015 37.7761 35.6839 37.395 35.6839C37.1365 35.6839 36.9011 35.7501 36.689 35.8827C36.4769 36.012 36.3079 36.1959 36.1819 36.4346C36.056 36.6699 35.993 36.945 35.993 37.2599V41.9033H34.1933ZM57.0514 34.267L54.3319 41.9033H52.3433L49.6238 34.267H51.5429L53.2979 39.9395H53.3774L55.1373 34.267H57.0514ZM67.3824 34.5205C67.336 34.0863 67.1404 33.7483 66.7957 33.5063C66.4543 33.2644 66.0102 33.1434 65.4633 33.1434C65.0789 33.1434 64.7491 33.2014 64.474 33.3174C64.1989 33.4334 63.9884 33.5908 63.8426 33.7897C63.6968 33.9885 63.6222 34.2156 63.6189 34.4708C63.6189 34.6829 63.6669 34.8669 63.7631 35.0226C63.8625 35.1784 63.9967 35.311 64.1657 35.4204C64.3348 35.5264 64.522 35.6159 64.7275 35.6888C64.933 35.7617 65.1402 35.8231 65.349 35.8728L66.3035 36.1114C66.688 36.2009 67.0576 36.3219 67.4122 36.4743C67.7702 36.6268 68.09 36.819 68.3717 37.051C68.6568 37.2831 68.8821 37.5631 69.0479 37.8912C69.2136 38.2194 69.2964 38.6038 69.2964 39.0447C69.2964 39.6412 69.144 40.1666 68.839 40.6206C68.5341 41.0714 68.0933 41.4244 67.5166 41.6796C66.9432 41.9315 66.2488 42.0574 65.4335 42.0574C64.6414 42.0574 63.9536 41.9348 63.3703 41.6895C62.7903 41.4443 62.3362 41.0863 62.0081 40.6157C61.6833 40.145 61.5076 39.5716 61.4811 38.8955H63.2957C63.3222 39.2501 63.4316 39.5451 63.6238 39.7805C63.8161 40.0158 64.0663 40.1914 64.3746 40.3074C64.6861 40.4234 65.0341 40.4814 65.4186 40.4814C65.8196 40.4814 66.171 40.4218 66.4726 40.3025C66.7775 40.1798 67.0161 40.0108 67.1885 39.7954C67.3608 39.5766 67.4487 39.3214 67.452 39.0297C67.4487 38.7646 67.3708 38.5458 67.2183 38.3735C67.0658 38.1978 66.8521 38.052 66.577 37.936C66.3052 37.8167 65.987 37.7106 65.6224 37.6178L64.464 37.3195C63.6255 37.1041 62.9626 36.7776 62.4754 36.3401C61.9915 35.8993 61.7496 35.3143 61.7496 34.5851C61.7496 33.9852 61.912 33.4599 62.2368 33.0091C62.5649 32.5584 63.0107 32.2087 63.5741 31.9601C64.1376 31.7082 64.7756 31.5823 65.4882 31.5823C66.2107 31.5823 66.8438 31.7082 67.3873 31.9601C67.9342 32.2087 68.3634 32.5551 68.675 32.9992C68.9865 33.44 69.1473 33.9471 69.1572 34.5205H67.3824ZM64.6977 30.7172L65.8113 28.4452H67.5713L66.045 30.7172H64.6977ZM72.661 37.4289V41.9033H70.8612V34.267H72.5814V35.5645H72.6709C72.8466 35.137 73.1266 34.7973 73.5111 34.5454C73.8989 34.2935 74.3778 34.1675 74.9479 34.1675C75.4749 34.1675 75.9339 34.2802 76.325 34.5056C76.7194 34.731 77.0244 35.0574 77.2398 35.485C77.4585 35.9126 77.5663 36.4313 77.5629 37.0411V41.9033H75.7632V37.3195C75.7632 36.8091 75.6307 36.4097 75.3655 36.1214C75.1037 35.833 74.7407 35.6888 74.2767 35.6888C73.9619 35.6888 73.6818 35.7584 73.4365 35.8976C73.1946 36.0335 73.004 36.2307 72.8648 36.4893C72.7289 36.7478 72.661 37.061 72.661 37.4289ZM79.3925 41.9033V34.267H81.1922V41.9033H79.3925ZM80.2973 33.1831C80.0123 33.1831 79.767 33.0887 79.5615 32.8998C79.356 32.7075 79.2533 32.4772 79.2533 32.2087C79.2533 31.9369 79.356 31.7066 79.5615 31.5177C79.767 31.3254 80.0123 31.2293 80.2973 31.2293C80.5857 31.2293 80.8309 31.3254 81.0331 31.5177C81.2386 31.7066 81.3414 31.9369 81.3414 32.2087C81.3414 32.4772 81.2386 32.7075 81.0331 32.8998C80.8309 33.0887 80.5857 33.1831 80.2973 33.1831ZM86.4236 42.0525C85.6579 42.0525 84.9967 41.8934 84.4399 41.5752C83.8864 41.2537 83.4605 40.7996 83.1622 40.213C82.8639 39.623 82.7148 38.9287 82.7148 38.1299C82.7148 37.3444 82.8639 36.655 83.1622 36.0617C83.4638 35.4651 83.8847 35.0011 84.425 34.6697C84.9652 34.3349 85.5999 34.1675 86.3291 34.1675C86.7997 34.1675 87.2439 34.2438 87.6615 34.3962C88.0824 34.5454 88.4536 34.7774 88.7751 35.0922C89.0999 35.4071 89.3551 35.8081 89.5407 36.2954C89.7264 36.7793 89.8192 37.356 89.8192 38.0255V38.5773H83.5599V37.3643H88.094C88.0907 37.0196 88.0161 36.713 87.8703 36.4445C87.7245 36.1727 87.5206 35.959 87.2588 35.8032C87.0003 35.6474 86.6987 35.5695 86.354 35.5695C85.9861 35.5695 85.6629 35.659 85.3845 35.838C85.1061 36.0136 84.889 36.2456 84.7332 36.534C84.5808 36.819 84.5029 37.1323 84.4996 37.4736V38.5326C84.4996 38.9767 84.5808 39.3579 84.7432 39.676C84.9056 39.9909 85.1326 40.2329 85.4243 40.4019C85.7159 40.5676 86.0573 40.6505 86.4484 40.6505C86.7103 40.6505 86.9472 40.614 87.1594 40.5411C87.3715 40.4649 87.5554 40.3538 87.7112 40.208C87.867 40.0622 87.9846 39.8815 88.0642 39.6661L89.7446 39.855C89.6385 40.2992 89.4363 40.6869 89.1381 41.0184C88.8431 41.3465 88.4652 41.6017 88.0045 41.784C87.5438 41.963 87.0168 42.0525 86.4236 42.0525ZM95.1549 34.267V35.659H90.765V34.267H95.1549ZM91.8488 32.4374H93.6485V39.6064C93.6485 39.8484 93.685 40.034 93.7579 40.1633C93.8341 40.2892 93.9336 40.3754 94.0562 40.4218C94.1788 40.4682 94.3147 40.4914 94.4639 40.4914C94.5766 40.4914 94.6793 40.4831 94.7721 40.4665C94.8682 40.45 94.9411 40.435 94.9909 40.4218L95.2941 41.8287C95.198 41.8619 95.0605 41.8983 94.8815 41.9381C94.7058 41.9779 94.4904 42.0011 94.2352 42.0077C93.7844 42.021 93.3784 41.953 93.0171 41.8039C92.6559 41.6514 92.3692 41.4161 92.157 41.0979C91.9482 40.7797 91.8455 40.382 91.8488 39.9047V32.4374ZM98.4598 37.4289V41.9033H96.6601V34.267H98.3802V35.5645H98.4697C98.6454 35.137 98.9255 34.7973 99.3099 34.5454C99.6977 34.2935 100.177 34.1675 100.747 34.1675C101.274 34.1675 101.733 34.2802 102.124 34.5056C102.518 34.731 102.823 35.0574 103.039 35.485C103.257 35.9126 103.365 36.4313 103.362 37.0411V41.9033H101.562V37.3195C101.562 36.8091 101.429 36.4097 101.164 36.1214C100.902 35.833 100.54 35.6888 100.076 35.6888C99.7607 35.6888 99.4806 35.7584 99.2354 35.8976C98.9934 36.0335 98.8028 36.2307 98.6636 36.4893C98.5277 36.7478 98.4598 37.061 98.4598 37.4289ZM105.191 41.9033V34.267H106.991V41.9033H105.191ZM106.096 33.1831C105.811 33.1831 105.566 33.0887 105.36 32.8998C105.155 32.7075 105.052 32.4772 105.052 32.2087C105.052 31.9369 105.155 31.7066 105.36 31.5177C105.566 31.3254 105.811 31.2293 106.096 31.2293C106.384 31.2293 106.63 31.3254 106.832 31.5177C107.037 31.7066 107.14 31.9369 107.14 32.2087C107.14 32.4772 107.037 32.7075 106.832 32.8998C106.63 33.0887 106.384 33.1831 106.096 33.1831ZM112.173 42.0525C111.41 42.0525 110.756 41.8851 110.209 41.5503C109.665 41.2156 109.246 40.7532 108.951 40.1633C108.659 39.57 108.514 38.8872 108.514 38.115C108.514 37.3394 108.663 36.655 108.961 36.0617C109.259 35.4651 109.68 35.0011 110.224 34.6697C110.771 34.3349 111.417 34.1675 112.163 34.1675C112.783 34.1675 113.331 34.2819 113.808 34.5106C114.289 34.7359 114.672 35.0558 114.957 35.4701C115.242 35.8811 115.404 36.3617 115.444 36.9118H113.724C113.654 36.5439 113.488 36.2374 113.227 35.9921C112.968 35.7435 112.622 35.6192 112.188 35.6192C111.82 35.6192 111.497 35.7187 111.218 35.9175C110.94 36.1131 110.723 36.3948 110.567 36.7627C110.414 37.1306 110.338 37.5714 110.338 38.0851C110.338 38.6055 110.414 39.0529 110.567 39.4275C110.719 39.7987 110.933 40.0854 111.208 40.2876C111.487 40.4864 111.813 40.5858 112.188 40.5858C112.453 40.5858 112.69 40.5361 112.899 40.4367C113.111 40.334 113.288 40.1865 113.43 39.9942C113.573 39.802 113.671 39.5683 113.724 39.2932H115.444C115.401 39.8335 115.242 40.3124 114.967 40.73C114.692 41.1443 114.317 41.4691 113.843 41.7045C113.369 41.9365 112.812 42.0525 112.173 42.0525ZM116.922 41.9033V34.267H118.722V41.9033H116.922ZM117.827 33.1831C117.542 33.1831 117.296 33.0887 117.091 32.8998C116.885 32.7075 116.783 32.4772 116.783 32.2087C116.783 31.9369 116.885 31.7066 117.091 31.5177C117.296 31.3254 117.542 31.2293 117.827 31.2293C118.115 31.2293 118.36 31.3254 118.562 31.5177C118.768 31.7066 118.871 31.9369 118.871 32.2087C118.871 32.4772 118.768 32.7075 118.562 32.8998C118.36 33.0887 118.115 33.1831 117.827 33.1831Z" fill="black"/>
</svg>
