<svg width="165" height="76" viewBox="0 0 165 76" fill="none" xmlns="http://www.w3.org/2000/svg">
<path d="M42.2706 33.6287C42.2706 43.076 29.6238 59.8951 24.0787 66.8346C22.7491 68.4885 20.2846 68.4885 18.9551 66.8346C13.3127 59.8951 0.763184 43.076 0.763184 33.6287C0.763184 22.1666 10.0548 12.875 21.5169 12.875C32.9747 12.875 42.2706 22.1666 42.2706 33.6287Z" fill="#44646E"/>
<path d="M26.8865 31.7265V28.8446L22.4114 26.6071V25.2646H24.2015V23.4746H22.4114V21.6846H20.6214V23.4746H18.8314V25.2646H20.6214V26.6071L16.1464 28.8446V31.7265L12.5664 33.3196V40.4796H19.7264V37.7946C19.7264 36.8101 20.5319 36.0046 21.5164 36.0046C22.5009 36.0046 23.3064 36.8101 23.3064 37.7946V40.4796H30.4665V33.3196L26.8865 31.7265ZM21.5164 32.8721C20.7736 32.8721 20.1739 32.2725 20.1739 31.5296C20.1739 30.7868 20.7736 30.1871 21.5164 30.1871C22.2593 30.1871 22.8589 30.7868 22.8589 31.5296C22.8589 32.2725 22.2593 32.8721 21.5164 32.8721Z" fill="#C3E0C8"/>
<path d="M66.219 35.7301H64.3596C64.3066 35.4252 64.2088 35.1551 64.0663 34.9197C63.9238 34.6811 63.7464 34.4789 63.5343 34.3132C63.3222 34.1475 63.0802 34.0232 62.8085 33.9403C62.54 33.8542 62.25 33.8111 61.9384 33.8111C61.3849 33.8111 60.8944 33.9503 60.4668 34.2287C60.0393 34.5038 59.7045 34.9081 59.4626 35.4418C59.2206 35.9721 59.0997 36.62 59.0997 37.3857C59.0997 38.1645 59.2206 38.8208 59.4626 39.3544C59.7078 39.8847 60.0426 40.2857 60.4668 40.5575C60.8944 40.826 61.3833 40.9602 61.9335 40.9602C62.2384 40.9602 62.5234 40.9205 62.7886 40.8409C63.057 40.758 63.2973 40.6371 63.5095 40.478C63.7249 40.3189 63.9055 40.1233 64.0514 39.8913C64.2005 39.6593 64.3033 39.3942 64.3596 39.0959L66.219 39.1058C66.1494 39.5897 65.9986 40.0438 65.7666 40.468C65.5379 40.8923 65.2379 41.2668 64.8667 41.5916C64.4955 41.9131 64.0613 42.165 63.5641 42.3473C63.067 42.5263 62.5151 42.6158 61.9086 42.6158C61.0137 42.6158 60.2149 42.4086 59.5123 41.9943C58.8096 41.58 58.2561 40.9818 57.8518 40.1996C57.4474 39.4174 57.2453 38.4794 57.2453 37.3857C57.2453 36.2886 57.4491 35.3506 57.8568 34.5717C58.2644 33.7895 58.8196 33.1913 59.5222 32.777C60.2249 32.3627 61.0203 32.1555 61.9086 32.1555C62.4754 32.1555 63.0024 32.2351 63.4896 32.3942C63.9768 32.5533 64.411 32.7869 64.7921 33.0952C65.1733 33.4001 65.4865 33.7746 65.7318 34.2188C65.9803 34.6596 66.1427 35.1634 66.219 35.7301ZM69.6282 38.0021V42.4766H67.8285V32.2947H69.5885V36.1378H69.678C69.8569 35.7069 70.1337 35.3672 70.5082 35.1186C70.8861 34.8667 71.3666 34.7408 71.95 34.7408C72.4803 34.7408 72.9426 34.8518 73.337 35.0739C73.7315 35.2959 74.0364 35.6207 74.2518 36.0483C74.4706 36.4759 74.5799 36.9979 74.5799 37.6143V42.4766H72.7802V37.8928C72.7802 37.379 72.6477 36.9796 72.3825 36.6946C72.1207 36.4062 71.7528 36.2621 71.2788 36.2621C70.9606 36.2621 70.6756 36.3317 70.4237 36.4709C70.1751 36.6068 69.9796 36.804 69.837 37.0625C69.6978 37.321 69.6282 37.6342 69.6282 38.0021ZM76.4145 42.4766V34.8402H78.1595V36.1129H78.239C78.3782 35.6721 78.6169 35.3324 78.9549 35.0938C79.2963 34.8518 79.6858 34.7308 80.1233 34.7308C80.2227 34.7308 80.3337 34.7358 80.4564 34.7457C80.5823 34.7524 80.6867 34.764 80.7696 34.7805V36.4361C80.6933 36.4096 80.5724 36.3864 80.4066 36.3665C80.2442 36.3433 80.0868 36.3317 79.9343 36.3317C79.6062 36.3317 79.3112 36.4029 79.0494 36.5455C78.7909 36.6847 78.587 36.8786 78.4379 37.1271C78.2888 37.3757 78.2142 37.6624 78.2142 37.9872V42.4766H76.4145ZM84.026 42.6307C83.5421 42.6307 83.1062 42.5445 82.7184 42.3722C82.334 42.1965 82.029 41.938 81.8037 41.5966C81.5816 41.2552 81.4706 40.8343 81.4706 40.3338C81.4706 39.9029 81.5501 39.5466 81.7092 39.2649C81.8683 38.9832 82.0854 38.7578 82.3605 38.5888C82.6356 38.4197 82.9455 38.2921 83.2902 38.206C83.6382 38.1165 83.9978 38.0518 84.369 38.0121C84.8165 37.9657 85.1794 37.9242 85.4578 37.8878C85.7362 37.848 85.9384 37.7884 86.0643 37.7088C86.1936 37.6259 86.2582 37.4983 86.2582 37.326V37.2962C86.2582 36.9216 86.1472 36.6316 85.9251 36.4261C85.7031 36.2206 85.3832 36.1179 84.9656 36.1179C84.5248 36.1179 84.1751 36.214 83.9166 36.4062C83.6614 36.5985 83.489 36.8255 83.3995 37.0874L81.7191 36.8487C81.8517 36.3847 82.0705 35.9969 82.3754 35.6854C82.6803 35.3705 83.0532 35.1352 83.494 34.9794C83.9348 34.8203 84.422 34.7408 84.9557 34.7408C85.3236 34.7408 85.6898 34.7839 86.0544 34.87C86.419 34.9562 86.7521 35.0987 87.0537 35.2976C87.3553 35.4931 87.5972 35.7599 87.7795 36.098C87.9651 36.4361 88.0579 36.8587 88.0579 37.3658V42.4766H86.3278V41.4276H86.2682C86.1588 41.6397 86.0047 41.8385 85.8058 42.0241C85.6102 42.2064 85.3633 42.3539 85.065 42.4666C84.77 42.576 84.4237 42.6307 84.026 42.6307ZM84.4933 41.3082C84.8546 41.3082 85.1678 41.237 85.4329 41.0945C85.6981 40.9486 85.9019 40.7564 86.0444 40.5178C86.1903 40.2791 86.2632 40.0189 86.2632 39.7372V38.8374C86.2068 38.8838 86.1107 38.9268 85.9748 38.9666C85.8423 39.0064 85.6931 39.0412 85.5274 39.071C85.3617 39.1009 85.1976 39.1274 85.0352 39.1506C84.8728 39.1738 84.7319 39.1937 84.6126 39.2102C84.3441 39.2467 84.1039 39.3063 83.8917 39.3892C83.6796 39.4721 83.5122 39.5881 83.3896 39.7372C83.267 39.883 83.2057 40.072 83.2057 40.304C83.2057 40.6354 83.3266 40.8857 83.5686 41.0547C83.8105 41.2237 84.1188 41.3082 84.4933 41.3082ZM84.3441 33.8359L85.4578 31.5639H87.2177L85.6915 33.8359H84.3441ZM89.8676 42.4766V34.8402H91.5878V36.1378H91.6772C91.8363 35.7003 92.0998 35.3589 92.4677 35.1136C92.8356 34.8651 93.2748 34.7408 93.7852 34.7408C94.3022 34.7408 94.7381 34.8667 95.0927 35.1186C95.4507 35.3672 95.7026 35.7069 95.8484 36.1378H95.928C96.097 35.7135 96.382 35.3755 96.7831 35.1236C97.1874 34.8684 97.6664 34.7408 98.2199 34.7408C98.9225 34.7408 99.4959 34.9628 99.94 35.407C100.384 35.8511 100.606 36.4991 100.606 37.3509V42.4766H98.8015V37.6293C98.8015 37.1553 98.6756 36.8089 98.4237 36.5902C98.1718 36.3681 97.8636 36.2571 97.499 36.2571C97.0648 36.2571 96.7251 36.393 96.4798 36.6648C96.2379 36.9332 96.1169 37.2829 96.1169 37.7138V42.4766H94.352V37.5547C94.352 37.1603 94.2326 36.8454 93.994 36.6101C93.7587 36.3748 93.4504 36.2571 93.0693 36.2571C92.8108 36.2571 92.5754 36.3234 92.3633 36.456C92.1512 36.5852 91.9822 36.7692 91.8562 37.0078C91.7303 37.2431 91.6673 37.5182 91.6673 37.8331V42.4766H89.8676ZM112.726 34.8402L110.006 42.4766H108.018L105.298 34.8402H107.217L108.972 40.5128H109.052L110.812 34.8402H112.726ZM117.523 42.4766V32.2947H119.368V36.973H119.492L123.464 32.2947H125.716L121.779 36.8636L125.751 42.4766H123.534L120.496 38.1115L119.368 39.4439V42.4766H117.523ZM126.918 42.4766V34.8402H128.663V36.1129H128.743C128.882 35.6721 129.121 35.3324 129.459 35.0938C129.8 34.8518 130.19 34.7308 130.627 34.7308C130.727 34.7308 130.838 34.7358 130.96 34.7457C131.086 34.7524 131.191 34.764 131.273 34.7805V36.4361C131.197 36.4096 131.076 36.3864 130.911 36.3665C130.748 36.3433 130.591 36.3317 130.438 36.3317C130.11 36.3317 129.815 36.4029 129.553 36.5455C129.295 36.6847 129.091 36.8786 128.942 37.1271C128.793 37.3757 128.718 37.6624 128.718 37.9872V42.4766H126.918ZM132.469 42.4766V34.8402H134.269V42.4766H132.469ZM133.374 33.7564C133.089 33.7564 132.844 33.6619 132.638 33.473C132.433 33.2808 132.33 33.0504 132.33 32.782C132.33 32.5102 132.433 32.2798 132.638 32.0909C132.844 31.8987 133.089 31.8026 133.374 31.8026C133.662 31.8026 133.908 31.8987 134.11 32.0909C134.315 32.2798 134.418 32.5102 134.418 32.782C134.418 33.0504 134.315 33.2808 134.11 33.473C133.908 33.6619 133.662 33.7564 133.374 33.7564ZM142.941 34.8402L140.221 42.4766H138.232L135.513 34.8402H137.432L139.187 40.5128H139.267L141.027 34.8402H142.941ZM147.257 42.6257C146.511 42.6257 145.865 42.4616 145.318 42.1335C144.771 41.8054 144.347 41.3464 144.045 40.7564C143.747 40.1664 143.598 39.477 143.598 38.6882C143.598 37.8994 143.747 37.2083 144.045 36.6151C144.347 36.0218 144.771 35.5611 145.318 35.233C145.865 34.9048 146.511 34.7408 147.257 34.7408C148.003 34.7408 148.649 34.9048 149.196 35.233C149.743 35.5611 150.166 36.0218 150.464 36.6151C150.765 37.2083 150.916 37.8994 150.916 38.6882C150.916 39.477 150.765 40.1664 150.464 40.7564C150.166 41.3464 149.743 41.8054 149.196 42.1335C148.649 42.4616 148.003 42.6257 147.257 42.6257ZM147.267 41.1839C147.671 41.1839 148.01 41.0729 148.281 40.8509C148.553 40.6255 148.755 40.3239 148.888 39.946C149.024 39.5682 149.092 39.1473 149.092 38.6832C149.092 38.2159 149.024 37.7933 148.888 37.4155C148.755 37.0343 148.553 36.7311 148.281 36.5057C148.01 36.2803 147.671 36.1676 147.267 36.1676C146.853 36.1676 146.508 36.2803 146.233 36.5057C145.961 36.7311 145.757 37.0343 145.621 37.4155C145.489 37.7933 145.423 38.2159 145.423 38.6832C145.423 39.1473 145.489 39.5682 145.621 39.946C145.757 40.3239 145.961 40.6255 146.233 40.8509C146.508 41.0729 146.853 41.1839 147.267 41.1839ZM152.444 42.4766V34.8402H154.164V36.1378H154.253C154.413 35.7003 154.676 35.3589 155.044 35.1136C155.412 34.8651 155.851 34.7408 156.361 34.7408C156.878 34.7408 157.314 34.8667 157.669 35.1186C158.027 35.3672 158.279 35.7069 158.425 36.1378H158.504C158.673 35.7135 158.958 35.3755 159.359 35.1236C159.764 34.8684 160.243 34.7408 160.796 34.7408C161.499 34.7408 162.072 34.9628 162.516 35.407C162.96 35.8511 163.182 36.4991 163.182 37.3509V42.4766H161.378V37.6293C161.378 37.1553 161.252 36.8089 161 36.5902C160.748 36.3681 160.44 36.2571 160.075 36.2571C159.641 36.2571 159.301 36.393 159.056 36.6648C158.814 36.9332 158.693 37.2829 158.693 37.7138V42.4766H156.928V37.5547C156.928 37.1603 156.809 36.8454 156.57 36.6101C156.335 36.3748 156.027 36.2571 155.645 36.2571C155.387 36.2571 155.152 36.3234 154.939 36.456C154.727 36.5852 154.558 36.7692 154.432 37.0078C154.306 37.2431 154.243 37.5182 154.243 37.8331V42.4766H152.444Z" fill="black"/>
</svg>
