<svg width="157" height="76" viewBox="0 0 157 76" fill="none" xmlns="http://www.w3.org/2000/svg">
<path d="M142.271 33.5799C142.271 43.0271 129.624 59.8463 124.079 66.7858C122.75 68.4396 120.285 68.4396 118.956 66.7858C113.313 59.8463 100.764 43.0271 100.764 33.5799C100.764 22.1178 110.055 12.8262 121.517 12.8262C132.975 12.8262 142.271 22.1178 142.271 33.5799Z" fill="#44646E"/>
<path d="M126.886 31.6777V28.7958L122.411 26.5583V25.2158H124.201V23.4257H122.411V21.6357H120.621V23.4257H118.831V25.2158H120.621V26.5583L116.146 28.7958V31.6777L112.566 33.2708V40.4308H119.726V37.7458C119.726 36.7613 120.532 35.9558 121.516 35.9558C122.501 35.9558 123.306 36.7613 123.306 37.7458V40.4308H130.466V33.2708L126.886 31.6777ZM121.516 32.8233C120.774 32.8233 120.174 32.2236 120.174 31.4808C120.174 30.7379 120.774 30.1383 121.516 30.1383C122.259 30.1383 122.859 30.7379 122.859 31.4808C122.859 32.2236 122.259 32.8233 121.516 32.8233Z" fill="#C3E0C8"/>
<path d="M10.5447 35.6813H8.68528C8.63225 35.3764 8.53448 35.1062 8.39196 34.8709C8.24944 34.6323 8.07212 34.4301 7.86 34.2644C7.64788 34.0987 7.40592 33.9744 7.13414 33.8915C6.86568 33.8053 6.57567 33.7623 6.26412 33.7623C5.71061 33.7623 5.22008 33.9015 4.79252 34.1799C4.36497 34.455 4.03021 34.8593 3.78826 35.3929C3.54631 35.9232 3.42534 36.5712 3.42534 37.3368C3.42534 38.1157 3.54631 38.772 3.78826 39.3056C4.03353 39.8359 4.36828 40.2369 4.79252 40.5087C5.22008 40.7772 5.70895 40.9114 6.25914 40.9114C6.56407 40.9114 6.84911 40.8716 7.11426 40.7921C7.38272 40.7092 7.62302 40.5882 7.83514 40.4292C8.05057 40.2701 8.23121 40.0745 8.37704 39.8425C8.52619 39.6105 8.62894 39.3453 8.68528 39.0471L10.5447 39.057C10.4751 39.5409 10.3242 39.995 10.0922 40.4192C9.86355 40.8435 9.5636 41.218 9.19238 41.5428C8.82117 41.8643 8.38699 42.1162 7.88983 42.2985C7.39267 42.4775 6.84082 42.5669 6.23429 42.5669C5.3394 42.5669 4.54063 42.3598 3.83798 41.9455C3.13533 41.5312 2.58182 40.9329 2.17747 40.1507C1.77311 39.3685 1.57093 38.4306 1.57093 37.3368C1.57093 36.2398 1.77477 35.3018 2.18244 34.5229C2.59011 33.7407 3.14527 33.1425 3.84792 32.7282C4.55057 32.3139 5.34603 32.1067 6.23429 32.1067C6.80105 32.1067 7.32804 32.1863 7.81525 32.3453C8.30247 32.5044 8.73665 32.7381 9.11781 33.0463C9.49896 33.3513 9.81217 33.7258 10.0574 34.1699C10.306 34.6107 10.4684 35.1145 10.5447 35.6813ZM13.9539 37.9533V42.4277H12.1542V32.2459H13.9142V36.089H14.0036C14.1826 35.6581 14.4594 35.3184 14.8339 35.0698C15.2117 34.8179 15.6923 34.6919 16.2757 34.6919C16.806 34.6919 17.2683 34.803 17.6627 35.025C18.0571 35.2471 18.3621 35.5719 18.5775 35.9995C18.7963 36.427 18.9056 36.949 18.9056 37.5655V42.4277H17.1059V37.8439C17.1059 37.3302 16.9733 36.9308 16.7082 36.6458C16.4463 36.3574 16.0785 36.2132 15.6045 36.2132C15.2863 36.2132 15.0013 36.2828 14.7494 36.4221C14.5008 36.5579 14.3052 36.7551 14.1627 37.0137C14.0235 37.2722 13.9539 37.5854 13.9539 37.9533ZM20.7401 42.4277V34.7914H22.4852V36.0641H22.5647C22.7039 35.6233 22.9426 35.2836 23.2806 35.0449C23.622 34.803 24.0115 34.682 24.449 34.682C24.5484 34.682 24.6594 34.687 24.782 34.6969C24.908 34.7035 25.0124 34.7151 25.0953 34.7317V36.3873C25.019 36.3607 24.8981 36.3375 24.7323 36.3176C24.5699 36.2944 24.4125 36.2828 24.26 36.2828C23.9319 36.2828 23.6369 36.3541 23.3751 36.4966C23.1166 36.6358 22.9127 36.8297 22.7636 37.0783C22.6144 37.3269 22.5399 37.6136 22.5399 37.9384V42.4277H20.7401ZM28.3517 42.5819C27.8677 42.5819 27.4319 42.4957 27.0441 42.3233C26.6597 42.1477 26.3547 41.8891 26.1294 41.5478C25.9073 41.2064 25.7963 40.7855 25.7963 40.285C25.7963 39.8541 25.8758 39.4978 26.0349 39.2161C26.194 38.9344 26.4111 38.709 26.6862 38.54C26.9613 38.3709 27.2712 38.2433 27.6159 38.1571C27.9639 38.0676 28.3235 38.003 28.6947 37.9632C29.1421 37.9168 29.5051 37.8754 29.7835 37.839C30.0619 37.7992 30.2641 37.7395 30.39 37.66C30.5193 37.5771 30.5839 37.4495 30.5839 37.2772V37.2473C30.5839 36.8728 30.4729 36.5828 30.2508 36.3773C30.0287 36.1718 29.7089 36.0691 29.2913 36.0691C28.8505 36.0691 28.5008 36.1652 28.2423 36.3574C27.9871 36.5497 27.8147 36.7767 27.7252 37.0385L26.0448 36.7999C26.1774 36.3359 26.3962 35.9481 26.7011 35.6365C27.006 35.3217 27.3789 35.0864 27.8197 34.9306C28.2605 34.7715 28.7477 34.6919 29.2813 34.6919C29.6492 34.6919 30.0155 34.735 30.3801 34.8212C30.7446 34.9074 31.0777 35.0499 31.3794 35.2488C31.681 35.4443 31.9229 35.7111 32.1052 36.0492C32.2908 36.3873 32.3836 36.8098 32.3836 37.3169V42.4277H30.6535V41.3787H30.5938C30.4845 41.5908 30.3303 41.7897 30.1315 41.9753C29.9359 42.1576 29.689 42.3051 29.3907 42.4178C29.0957 42.5272 28.7494 42.5819 28.3517 42.5819ZM28.819 41.2594C29.1802 41.2594 29.4935 41.1882 29.7586 41.0456C30.0238 40.8998 30.2276 40.7076 30.3701 40.4689C30.516 40.2303 30.5889 39.9701 30.5889 39.6884V38.7885C30.5325 38.8349 30.4364 38.878 30.3005 38.9178C30.1679 38.9576 30.0188 38.9924 29.8531 39.0222C29.6874 39.052 29.5233 39.0785 29.3609 39.1017C29.1985 39.1249 29.0576 39.1448 28.9383 39.1614C28.6698 39.1979 28.4295 39.2575 28.2174 39.3404C28.0053 39.4232 27.8379 39.5392 27.7153 39.6884C27.5927 39.8342 27.5313 40.0231 27.5313 40.2551C27.5313 40.5866 27.6523 40.8368 27.8943 41.0059C28.1362 41.1749 28.4445 41.2594 28.819 41.2594ZM28.6698 33.7871L29.7835 31.5151H31.5434L30.0171 33.7871H28.6698ZM34.1933 42.4277V34.7914H35.9134V36.089H36.0029C36.162 35.6515 36.4255 35.3101 36.7934 35.0648C37.1613 34.8162 37.6005 34.6919 38.1109 34.6919C38.6279 34.6919 39.0638 34.8179 39.4184 35.0698C39.7764 35.3184 40.0283 35.6581 40.1741 36.089H40.2536C40.4227 35.6647 40.7077 35.3266 41.1088 35.0748C41.5131 34.8195 41.992 34.6919 42.5455 34.6919C43.2482 34.6919 43.8216 34.914 44.2657 35.3581C44.7098 35.8023 44.9319 36.4502 44.9319 37.302V42.4277H43.1272V37.5804C43.1272 37.1065 43.0013 36.7601 42.7494 36.5414C42.4975 36.3193 42.1892 36.2083 41.8247 36.2083C41.3905 36.2083 41.0508 36.3442 40.8055 36.6159C40.5635 36.8844 40.4426 37.2341 40.4426 37.665V42.4277H38.6776V37.5059C38.6776 37.1114 38.5583 36.7966 38.3197 36.5613C38.0844 36.3259 37.7761 36.2083 37.395 36.2083C37.1365 36.2083 36.9011 36.2746 36.689 36.4071C36.4769 36.5364 36.3079 36.7203 36.1819 36.959C36.056 37.1943 35.993 37.4694 35.993 37.7843V42.4277H34.1933ZM57.0514 34.7914L54.3319 42.4277H52.3433L49.6238 34.7914H51.5429L53.2979 40.464H53.3774L55.1373 34.7914H57.0514ZM61.849 42.4277V32.2459H63.6934V40.8816H68.1778V42.4277H61.849ZM73.0301 42.5769C72.2844 42.5769 71.6381 42.4128 71.0912 42.0847C70.5443 41.7566 70.1201 41.2975 69.8184 40.7076C69.5202 40.1176 69.371 39.4282 69.371 38.6394C69.371 37.8506 69.5202 37.1595 69.8184 36.5662C70.1201 35.973 70.5443 35.5123 71.0912 35.1841C71.6381 34.856 72.2844 34.6919 73.0301 34.6919C73.7758 34.6919 74.4221 34.856 74.969 35.1841C75.5159 35.5123 75.9385 35.973 76.2368 36.5662C76.5384 37.1595 76.6892 37.8506 76.6892 38.6394C76.6892 39.4282 76.5384 40.1176 76.2368 40.7076C75.9385 41.2975 75.5159 41.7566 74.969 42.0847C74.4221 42.4128 73.7758 42.5769 73.0301 42.5769ZM73.04 41.1351C73.4444 41.1351 73.7825 41.0241 74.0542 40.802C74.326 40.5766 74.5282 40.275 74.6608 39.8972C74.7967 39.5194 74.8646 39.0984 74.8646 38.6344C74.8646 38.1671 74.7967 37.7445 74.6608 37.3667C74.5282 36.9855 74.326 36.6822 74.0542 36.4569C73.7825 36.2315 73.4444 36.1188 73.04 36.1188C72.6257 36.1188 72.281 36.2315 72.0059 36.4569C71.7342 36.6822 71.5303 36.9855 71.3944 37.3667C71.2619 37.7445 71.1956 38.1671 71.1956 38.6344C71.1956 39.0984 71.2619 39.5194 71.3944 39.8972C71.5303 40.275 71.7342 40.5766 72.0059 40.802C72.281 41.0241 72.6257 41.1351 73.04 41.1351ZM84.2522 36.8098L82.6116 36.9888C82.5652 36.8231 82.484 36.6673 82.368 36.5215C82.2553 36.3757 82.1028 36.258 81.9106 36.1685C81.7184 36.079 81.483 36.0343 81.2046 36.0343C80.8301 36.0343 80.5152 36.1155 80.26 36.2779C80.0081 36.4403 79.8838 36.6507 79.8872 36.9093C79.8838 37.1313 79.9651 37.312 80.1308 37.4512C80.2998 37.5904 80.5782 37.7047 80.966 37.7942L82.2686 38.0726C82.9911 38.2284 83.528 38.4753 83.8794 38.8134C84.234 39.1515 84.413 39.5939 84.4163 40.1408C84.413 40.6214 84.2721 41.0456 83.9937 41.4135C83.7186 41.7781 83.3358 42.0632 82.8453 42.2686C82.3547 42.4741 81.7913 42.5769 81.1549 42.5769C80.2203 42.5769 79.4679 42.3813 78.8978 41.9902C78.3277 41.5958 77.988 41.0473 77.8786 40.3446L79.6336 40.1756C79.7132 40.5203 79.8822 40.7805 80.1407 40.9561C80.3992 41.1318 80.7356 41.2196 81.1499 41.2196C81.5775 41.2196 81.9205 41.1318 82.1791 40.9561C82.4409 40.7805 82.5718 40.5634 82.5718 40.3049C82.5718 40.0861 82.4873 39.9055 82.3183 39.763C82.1526 39.6204 81.894 39.5111 81.5427 39.4348L80.2401 39.1614C79.5077 39.0089 78.9658 38.7521 78.6144 38.3908C78.2631 38.0262 78.0891 37.5655 78.0924 37.0087C78.0891 36.5381 78.2167 36.1304 78.4752 35.7857C78.7371 35.4377 79.1 35.1692 79.564 34.9803C80.0313 34.7881 80.5699 34.6919 81.1798 34.6919C82.0747 34.6919 82.779 34.8825 83.2927 35.2637C83.8097 35.6448 84.1296 36.1602 84.2522 36.8098ZM85.9003 42.4277V34.7914H87.7V42.4277H85.9003ZM86.8051 33.7076C86.5201 33.7076 86.2748 33.6131 86.0693 33.4242C85.8638 33.2319 85.7611 33.0016 85.7611 32.7331C85.7611 32.4614 85.8638 32.231 86.0693 32.0421C86.2748 31.8498 86.5201 31.7537 86.8051 31.7537C87.0935 31.7537 87.3387 31.8498 87.5409 32.0421C87.7464 32.231 87.8492 32.4614 87.8492 32.7331C87.8492 33.0016 87.7464 33.2319 87.5409 33.4242C87.3387 33.6131 87.0935 33.7076 86.8051 33.7076Z" fill="black"/>
</svg>
