<svg width="185" height="75" viewBox="0 0 185 75" fill="none" xmlns="http://www.w3.org/2000/svg">
<path d="M42.2706 33.1541C42.2706 42.6014 29.6238 59.4205 24.0787 66.36C22.7491 68.0138 20.2846 68.0138 18.9551 66.36C13.3127 59.4205 0.763184 42.6014 0.763184 33.1541C0.763184 21.692 10.0548 12.4004 21.5169 12.4004C32.9747 12.4004 42.2706 21.692 42.2706 33.1541Z" fill="#44646E"/>
<path d="M26.8865 31.2519V28.37L22.4114 26.1325V24.79H24.2015V23H22.4114V21.21H20.6214V23H18.8314V24.79H20.6214V26.1325L16.1464 28.37V31.2519L12.5664 32.845V40.005H19.7264V37.32C19.7264 36.3355 20.5319 35.53 21.5164 35.53C22.5009 35.53 23.3064 36.3355 23.3064 37.32V40.005H30.4665V32.845L26.8865 31.2519ZM21.5164 32.3975C20.7736 32.3975 20.1739 31.7979 20.1739 31.055C20.1739 30.3121 20.7736 29.7125 21.5164 29.7125C22.2593 29.7125 22.8589 30.3121 22.8589 31.055C22.8589 31.7979 22.2593 32.3975 21.5164 32.3975Z" fill="#C3E0C8"/>
<path d="M66.219 35.2555H64.3596C64.3066 34.9506 64.2088 34.6805 64.0663 34.4451C63.9238 34.2065 63.7464 34.0043 63.5343 33.8386C63.3222 33.6729 63.0802 33.5486 62.8085 33.4657C62.54 33.3796 62.25 33.3365 61.9384 33.3365C61.3849 33.3365 60.8944 33.4757 60.4668 33.7541C60.0393 34.0292 59.7045 34.4335 59.4626 34.9672C59.2206 35.4975 59.0997 36.1454 59.0997 36.911C59.0997 37.6899 59.2206 38.3462 59.4626 38.8798C59.7078 39.4101 60.0426 39.8111 60.4668 40.0829C60.8944 40.3514 61.3833 40.4856 61.9335 40.4856C62.2384 40.4856 62.5234 40.4458 62.7886 40.3663C63.057 40.2834 63.2973 40.1625 63.5095 40.0034C63.7249 39.8443 63.9055 39.6487 64.0514 39.4167C64.2005 39.1847 64.3033 38.9196 64.3596 38.6213L66.219 38.6312C66.1494 39.1151 65.9986 39.5692 65.7666 39.9934C65.5379 40.4177 65.2379 40.7922 64.8667 41.117C64.4955 41.4385 64.0613 41.6904 63.5641 41.8727C63.067 42.0517 62.5151 42.1412 61.9086 42.1412C61.0137 42.1412 60.2149 41.934 59.5123 41.5197C58.8096 41.1054 58.2561 40.5072 57.8518 39.725C57.4474 38.9428 57.2453 38.0048 57.2453 36.911C57.2453 35.814 57.4491 34.876 57.8568 34.0971C58.2644 33.3149 58.8196 32.7167 59.5222 32.3024C60.2249 31.8881 61.0203 31.6809 61.9086 31.6809C62.4754 31.6809 63.0024 31.7605 63.4896 31.9196C63.9768 32.0787 64.411 32.3123 64.7921 32.6206C65.1733 32.9255 65.4865 33.3 65.7318 33.7441C65.9803 34.185 66.1427 34.6887 66.219 35.2555ZM69.6282 37.5275V42.002H67.8285V31.8201H69.5885V35.6632H69.678C69.8569 35.2323 70.1337 34.8926 70.5082 34.644C70.8861 34.3921 71.3666 34.2662 71.95 34.2662C72.4803 34.2662 72.9426 34.3772 73.337 34.5993C73.7315 34.8213 74.0364 35.1461 74.2518 35.5737C74.4706 36.0012 74.5799 36.5233 74.5799 37.1397V42.002H72.7802V37.4181C72.7802 36.9044 72.6477 36.505 72.3825 36.22C72.1207 35.9316 71.7528 35.7875 71.2788 35.7875C70.9606 35.7875 70.6756 35.8571 70.4237 35.9963C70.1751 36.1322 69.9796 36.3294 69.837 36.5879C69.6978 36.8464 69.6282 37.1596 69.6282 37.5275ZM76.4145 42.002V34.3656H78.1595V35.6383H78.239C78.3782 35.1975 78.6169 34.8578 78.9549 34.6191C79.2963 34.3772 79.6858 34.2562 80.1233 34.2562C80.2227 34.2562 80.3337 34.2612 80.4564 34.2711C80.5823 34.2778 80.6867 34.2894 80.7696 34.3059V35.9615C80.6933 35.935 80.5724 35.9118 80.4066 35.8919C80.2442 35.8687 80.0868 35.8571 79.9343 35.8571C79.6062 35.8571 79.3112 35.9283 79.0494 36.0708C78.7909 36.21 78.587 36.4039 78.4379 36.6525C78.2888 36.9011 78.2142 37.1878 78.2142 37.5126V42.002H76.4145ZM84.026 42.1561C83.5421 42.1561 83.1062 42.0699 82.7184 41.8975C82.334 41.7219 82.029 41.4634 81.8037 41.122C81.5816 40.7806 81.4706 40.3597 81.4706 39.8592C81.4706 39.4283 81.5501 39.072 81.7092 38.7903C81.8683 38.5086 82.0854 38.2832 82.3605 38.1142C82.6356 37.9451 82.9455 37.8175 83.2902 37.7314C83.6382 37.6419 83.9978 37.5772 84.369 37.5375C84.8165 37.4911 85.1794 37.4496 85.4578 37.4132C85.7362 37.3734 85.9384 37.3137 86.0643 37.2342C86.1936 37.1513 86.2582 37.0237 86.2582 36.8514V36.8216C86.2582 36.447 86.1472 36.157 85.9251 35.9515C85.7031 35.746 85.3832 35.6433 84.9656 35.6433C84.5248 35.6433 84.1751 35.7394 83.9166 35.9316C83.6614 36.1239 83.489 36.3509 83.3995 36.6127L81.7191 36.3741C81.8517 35.9101 82.0705 35.5223 82.3754 35.2108C82.6803 34.8959 83.0532 34.6606 83.494 34.5048C83.9348 34.3457 84.422 34.2662 84.9557 34.2662C85.3236 34.2662 85.6898 34.3092 86.0544 34.3954C86.419 34.4816 86.7521 34.6241 87.0537 34.823C87.3553 35.0185 87.5972 35.2853 87.7795 35.6234C87.9651 35.9615 88.0579 36.3841 88.0579 36.8912V42.002H86.3278V40.9529H86.2682C86.1588 41.1651 86.0047 41.3639 85.8058 41.5495C85.6102 41.7318 85.3633 41.8793 85.065 41.992C84.77 42.1014 84.4237 42.1561 84.026 42.1561ZM84.4933 40.8336C84.8546 40.8336 85.1678 40.7624 85.4329 40.6199C85.6981 40.474 85.9019 40.2818 86.0444 40.0431C86.1903 39.8045 86.2632 39.5443 86.2632 39.2626V38.3627C86.2068 38.4092 86.1107 38.4522 85.9748 38.492C85.8423 38.5318 85.6931 38.5666 85.5274 38.5964C85.3617 38.6262 85.1976 38.6528 85.0352 38.676C84.8728 38.6992 84.7319 38.719 84.6126 38.7356C84.3441 38.7721 84.1039 38.8317 83.8917 38.9146C83.6796 38.9975 83.5122 39.1135 83.3896 39.2626C83.267 39.4084 83.2057 39.5974 83.2057 39.8294C83.2057 40.1608 83.3266 40.411 83.5686 40.5801C83.8105 40.7491 84.1188 40.8336 84.4933 40.8336ZM84.3441 33.3613L85.4578 31.0893H87.2177L85.6915 33.3613H84.3441ZM89.8676 42.002V34.3656H91.5878V35.6632H91.6772C91.8363 35.2257 92.0998 34.8843 92.4677 34.639C92.8356 34.3904 93.2748 34.2662 93.7852 34.2662C94.3022 34.2662 94.7381 34.3921 95.0927 34.644C95.4507 34.8926 95.7026 35.2323 95.8484 35.6632H95.928C96.097 35.2389 96.382 34.9009 96.7831 34.649C97.1874 34.3938 97.6664 34.2662 98.2199 34.2662C98.9225 34.2662 99.4959 34.4882 99.94 34.9324C100.384 35.3765 100.606 36.0244 100.606 36.8762V42.002H98.8015V37.1547C98.8015 36.6807 98.6756 36.3343 98.4237 36.1156C98.1718 35.8935 97.8636 35.7825 97.499 35.7825C97.0648 35.7825 96.7251 35.9184 96.4798 36.1902C96.2379 36.4586 96.1169 36.8083 96.1169 37.2392V42.002H94.352V37.0801C94.352 36.6857 94.2326 36.3708 93.994 36.1355C93.7587 35.9002 93.4504 35.7825 93.0693 35.7825C92.8108 35.7825 92.5754 35.8488 92.3633 35.9814C92.1512 36.1106 91.9822 36.2946 91.8562 36.5332C91.7303 36.7685 91.6673 37.0436 91.6673 37.3585V42.002H89.8676ZM112.726 34.3656L110.006 42.002H108.018L105.298 34.3656H107.217L108.972 40.0382H109.052L110.812 34.3656H112.726ZM117.523 42.002V31.8201H121.341C122.124 31.8201 122.78 31.966 123.31 32.2576C123.844 32.5493 124.247 32.9503 124.518 33.4608C124.793 33.9679 124.931 34.5446 124.931 35.1909C124.931 35.8438 124.793 36.4238 124.518 36.9309C124.243 37.438 123.837 37.8374 123.3 38.1291C122.763 38.4174 122.102 38.5616 121.317 38.5616H118.786V37.0453H121.068C121.525 37.0453 121.9 36.9657 122.192 36.8066C122.483 36.6475 122.699 36.4288 122.838 36.1504C122.98 35.872 123.052 35.5521 123.052 35.1909C123.052 34.8296 122.98 34.5114 122.838 34.2363C122.699 33.9612 122.482 33.7475 122.187 33.595C121.895 33.4392 121.519 33.3613 121.058 33.3613H119.368V42.002H117.523ZM126.454 42.002V34.3656H128.199V35.6383H128.278C128.417 35.1975 128.656 34.8578 128.994 34.6191C129.335 34.3772 129.725 34.2562 130.162 34.2562C130.262 34.2562 130.373 34.2612 130.495 34.2711C130.621 34.2778 130.726 34.2894 130.809 34.3059V35.9615C130.732 35.935 130.611 35.9118 130.446 35.8919C130.283 35.8687 130.126 35.8571 129.973 35.8571C129.645 35.8571 129.35 35.9283 129.088 36.0708C128.83 36.21 128.626 36.4039 128.477 36.6525C128.328 36.9011 128.253 37.1878 128.253 37.5126V42.002H126.454ZM131.905 42.002V40.8585L135.842 35.9217V35.8571H132.034V34.3656H138.045V35.5936L134.296 40.4458V40.5105H138.174V42.002H131.905ZM140.984 44.8656C140.739 44.8656 140.512 44.8457 140.303 44.8059C140.098 44.7695 139.934 44.7264 139.811 44.6767L140.229 43.2747C140.49 43.3509 140.724 43.3874 140.93 43.3841C141.135 43.3807 141.316 43.3161 141.471 43.1902C141.631 43.0675 141.765 42.862 141.874 42.5737L142.028 42.161L139.259 34.3656H141.168L142.928 40.1326H143.008L144.773 34.3656H146.687L143.629 42.9267C143.487 43.331 143.298 43.6774 143.062 43.9657C142.827 44.2574 142.539 44.4795 142.197 44.6319C141.859 44.7877 141.455 44.8656 140.984 44.8656ZM153.968 36.3841L152.327 36.563C152.281 36.3973 152.199 36.2415 152.083 36.0957C151.971 35.9499 151.818 35.8322 151.626 35.7427C151.434 35.6532 151.198 35.6085 150.92 35.6085C150.545 35.6085 150.231 35.6897 149.975 35.8521C149.723 36.0145 149.599 36.225 149.602 36.4835C149.599 36.7056 149.68 36.8862 149.846 37.0254C150.015 37.1646 150.294 37.2789 150.681 37.3684L151.984 37.6468C152.706 37.8026 153.243 38.0495 153.595 38.3876C153.949 38.7257 154.128 39.1681 154.132 39.715C154.128 40.1956 153.987 40.6199 153.709 40.9877C153.434 41.3523 153.051 41.6374 152.561 41.8429C152.07 42.0484 151.507 42.1511 150.87 42.1511C149.936 42.1511 149.183 41.9556 148.613 41.5645C148.043 41.17 147.703 40.6215 147.594 39.9189L149.349 39.7498C149.428 40.0945 149.598 40.3547 149.856 40.5304C150.115 40.706 150.451 40.7939 150.865 40.7939C151.293 40.7939 151.636 40.706 151.894 40.5304C152.156 40.3547 152.287 40.1376 152.287 39.8791C152.287 39.6603 152.203 39.4797 152.034 39.3372C151.868 39.1947 151.609 39.0853 151.258 39.0091L149.955 38.7356C149.223 38.5832 148.681 38.3263 148.33 37.965C147.978 37.6004 147.804 37.1397 147.808 36.5829C147.804 36.1123 147.932 35.7046 148.191 35.3599C148.452 35.0119 148.815 34.7434 149.279 34.5545C149.747 34.3623 150.285 34.2662 150.895 34.2662C151.79 34.2662 152.494 34.4567 153.008 34.8379C153.525 35.219 153.845 35.7344 153.968 36.3841ZM158.415 35.4643V36.5382L154.616 37.8159V36.742L158.415 35.4643ZM157.415 31.8201V42.002H155.616V31.8201H157.415ZM162.597 42.1511C161.851 42.1511 161.205 41.987 160.658 41.6589C160.111 41.3308 159.687 40.8717 159.385 40.2818C159.087 39.6918 158.938 39.0024 158.938 38.2136C158.938 37.4248 159.087 36.7337 159.385 36.1404C159.687 35.5472 160.111 35.0865 160.658 34.7583C161.205 34.4302 161.851 34.2662 162.597 34.2662C163.343 34.2662 163.989 34.4302 164.536 34.7583C165.083 35.0865 165.505 35.5472 165.804 36.1404C166.105 36.7337 166.256 37.4248 166.256 38.2136C166.256 39.0024 166.105 39.6918 165.804 40.2818C165.505 40.8717 165.083 41.3308 164.536 41.6589C163.989 41.987 163.343 42.1511 162.597 42.1511ZM162.607 40.7093C163.011 40.7093 163.349 40.5983 163.621 40.3762C163.893 40.1509 164.095 39.8493 164.228 39.4714C164.364 39.0936 164.432 38.6726 164.432 38.2086C164.432 37.7413 164.364 37.3187 164.228 36.9409C164.095 36.5597 163.893 36.2565 163.621 36.0311C163.349 35.8057 163.011 35.693 162.607 35.693C162.193 35.693 161.848 35.8057 161.573 36.0311C161.301 36.2565 161.097 36.5597 160.961 36.9409C160.829 37.3187 160.762 37.7413 160.762 38.2086C160.762 38.6726 160.829 39.0936 160.961 39.4714C161.097 39.8493 161.301 40.1509 161.573 40.3762C161.848 40.5983 162.193 40.7093 162.607 40.7093ZM167.784 44.8656V34.3656H169.553V35.6284H169.658C169.751 35.4428 169.882 35.2456 170.051 35.0368C170.22 34.8246 170.448 34.644 170.737 34.4949C171.025 34.3424 171.393 34.2662 171.84 34.2662C172.43 34.2662 172.962 34.417 173.436 34.7186C173.914 35.0169 174.291 35.4593 174.57 36.046C174.852 36.6293 174.992 37.3452 174.992 38.1937C174.992 39.0323 174.855 39.7449 174.58 40.3315C174.305 40.9181 173.93 41.3656 173.456 41.6738C172.982 41.9821 172.445 42.1362 171.845 42.1362C171.408 42.1362 171.045 42.0633 170.757 41.9174C170.468 41.7716 170.236 41.5959 170.061 41.3904C169.888 41.1816 169.754 40.9844 169.658 40.7988H169.583V44.8656H167.784ZM169.549 38.1838C169.549 38.6776 169.618 39.1101 169.757 39.4814C169.9 39.8526 170.104 40.1426 170.369 40.3514C170.637 40.5569 170.962 40.6596 171.343 40.6596C171.741 40.6596 172.074 40.5536 172.343 40.3414C172.611 40.126 172.813 39.8327 172.949 39.4615C173.088 39.0869 173.158 38.661 173.158 38.1838C173.158 37.7098 173.09 37.2889 172.954 36.921C172.818 36.5531 172.616 36.2647 172.348 36.0559C172.079 35.8471 171.744 35.7427 171.343 35.7427C170.959 35.7427 170.632 35.8438 170.364 36.046C170.095 36.2482 169.892 36.5315 169.752 36.8961C169.616 37.2607 169.549 37.6899 169.549 38.1838ZM179.914 42.1511C179.149 42.1511 178.487 41.992 177.931 41.6738C177.377 41.3523 176.951 40.8983 176.653 40.3116C176.355 39.7216 176.205 39.0273 176.205 38.2285C176.205 37.443 176.355 36.7536 176.653 36.1603C176.955 35.5637 177.375 35.0997 177.916 34.7683C178.456 34.4335 179.091 34.2662 179.82 34.2662C180.29 34.2662 180.735 34.3424 181.152 34.4949C181.573 34.644 181.944 34.876 182.266 35.1909C182.591 35.5057 182.846 35.9068 183.031 36.394C183.217 36.8779 183.31 37.4546 183.31 38.1241V38.676H177.051V37.4629H181.585C181.581 37.1182 181.507 36.8116 181.361 36.5431C181.215 36.2714 181.011 36.0576 180.75 35.9018C180.491 35.746 180.189 35.6681 179.845 35.6681C179.477 35.6681 179.154 35.7576 178.875 35.9366C178.597 36.1123 178.38 36.3443 178.224 36.6326C178.071 36.9177 177.994 37.2309 177.99 37.5723V38.6312C177.99 39.0753 178.071 39.4565 178.234 39.7747C178.396 40.0895 178.623 40.3315 178.915 40.5005C179.207 40.6663 179.548 40.7491 179.939 40.7491C180.201 40.7491 180.438 40.7127 180.65 40.6397C180.862 40.5635 181.046 40.4525 181.202 40.3066C181.358 40.1608 181.475 39.9802 181.555 39.7647L183.235 39.9537C183.129 40.3978 182.927 40.7856 182.629 41.117C182.334 41.4451 181.956 41.7003 181.495 41.8826C181.035 42.0616 180.508 42.1511 179.914 42.1511Z" fill="black"/>
</svg>
