<svg width="181" height="75" viewBox="0 0 181 75" fill="none" xmlns="http://www.w3.org/2000/svg">
<path d="M42.2706 33.1043C42.2706 42.5516 29.6238 59.3707 24.0787 66.3102C22.7491 67.964 20.2846 67.964 18.9551 66.3102C13.3127 59.3707 0.763184 42.5516 0.763184 33.1043C0.763184 21.6422 10.0548 12.3506 21.5169 12.3506C32.9747 12.3506 42.2706 21.6422 42.2706 33.1043Z" fill="#44646E"/>
<path d="M26.8865 31.2021V28.3202L22.4114 26.0827V24.7402H24.2015V22.9502H22.4114V21.1602H20.6214V22.9502H18.8314V24.7402H20.6214V26.0827L16.1464 28.3202V31.2021L12.5664 32.7952V39.9552H19.7264V37.2702C19.7264 36.2857 20.5319 35.4802 21.5164 35.4802C22.5009 35.4802 23.3064 36.2857 23.3064 37.2702V39.9552H30.4665V32.7952L26.8865 31.2021ZM21.5164 32.3477C20.7736 32.3477 20.1739 31.748 20.1739 31.0052C20.1739 30.2623 20.7736 29.6627 21.5164 29.6627C22.2593 29.6627 22.8589 30.2623 22.8589 31.0052C22.8589 31.748 22.2593 32.3477 21.5164 32.3477Z" fill="#C3E0C8"/>
<path d="M66.219 35.2057H64.3596C64.3066 34.9008 64.2088 34.6307 64.0663 34.3953C63.9238 34.1567 63.7464 33.9545 63.5343 33.7888C63.3222 33.6231 63.0802 33.4988 62.8085 33.4159C62.54 33.3298 62.25 33.2867 61.9384 33.2867C61.3849 33.2867 60.8944 33.4259 60.4668 33.7043C60.0393 33.9794 59.7045 34.3837 59.4626 34.9173C59.2206 35.4477 59.0997 36.0956 59.0997 36.8612C59.0997 37.6401 59.2206 38.2964 59.4626 38.83C59.7078 39.3603 60.0426 39.7613 60.4668 40.0331C60.8944 40.3016 61.3833 40.4358 61.9335 40.4358C62.2384 40.4358 62.5234 40.396 62.7886 40.3165C63.057 40.2336 63.2973 40.1127 63.5095 39.9536C63.7249 39.7945 63.9055 39.5989 64.0514 39.3669C64.2005 39.1349 64.3033 38.8698 64.3596 38.5715L66.219 38.5814C66.1494 39.0653 65.9986 39.5194 65.7666 39.9436C65.5379 40.3679 65.2379 40.7424 64.8667 41.0672C64.4955 41.3887 64.0613 41.6406 63.5641 41.8229C63.067 42.0019 62.5151 42.0914 61.9086 42.0914C61.0137 42.0914 60.2149 41.8842 59.5123 41.4699C58.8096 41.0556 58.2561 40.4574 57.8518 39.6752C57.4474 38.893 57.2453 37.955 57.2453 36.8612C57.2453 35.7642 57.4491 34.8262 57.8568 34.0473C58.2644 33.2651 58.8196 32.6669 59.5222 32.2526C60.2249 31.8383 61.0203 31.6311 61.9086 31.6311C62.4754 31.6311 63.0024 31.7107 63.4896 31.8698C63.9768 32.0289 64.411 32.2625 64.7921 32.5708C65.1733 32.8757 65.4865 33.2502 65.7318 33.6943C65.9803 34.1352 66.1427 34.6389 66.219 35.2057ZM69.6282 37.4777V41.9521H67.8285V31.7703H69.5885V35.6134H69.678C69.8569 35.1825 70.1337 34.8428 70.5082 34.5942C70.8861 34.3423 71.3666 34.2164 71.95 34.2164C72.4803 34.2164 72.9426 34.3274 73.337 34.5494C73.7315 34.7715 74.0364 35.0963 74.2518 35.5239C74.4706 35.9514 74.5799 36.4735 74.5799 37.0899V41.9521H72.7802V37.3683C72.7802 36.8546 72.6477 36.4552 72.3825 36.1702C72.1207 35.8818 71.7528 35.7377 71.2788 35.7377C70.9606 35.7377 70.6756 35.8073 70.4237 35.9465C70.1751 36.0824 69.9796 36.2796 69.837 36.5381C69.6978 36.7966 69.6282 37.1098 69.6282 37.4777ZM76.4145 41.9521V34.3158H78.1595V35.5885H78.239C78.3782 35.1477 78.6169 34.808 78.9549 34.5693C79.2963 34.3274 79.6858 34.2064 80.1233 34.2064C80.2227 34.2064 80.3337 34.2114 80.4564 34.2213C80.5823 34.228 80.6867 34.2396 80.7696 34.2561V35.9117C80.6933 35.8852 80.5724 35.8619 80.4066 35.8421C80.2442 35.8189 80.0868 35.8073 79.9343 35.8073C79.6062 35.8073 79.3112 35.8785 79.0494 36.021C78.7909 36.1602 78.587 36.3541 78.4379 36.6027C78.2888 36.8513 78.2142 37.138 78.2142 37.4628V41.9521H76.4145ZM84.026 42.1063C83.5421 42.1063 83.1062 42.0201 82.7184 41.8477C82.334 41.6721 82.029 41.4136 81.8037 41.0722C81.5816 40.7308 81.4706 40.3099 81.4706 39.8094C81.4706 39.3785 81.5501 39.0222 81.7092 38.7405C81.8683 38.4588 82.0854 38.2334 82.3605 38.0644C82.6356 37.8953 82.9455 37.7677 83.2902 37.6816C83.6382 37.5921 83.9978 37.5274 84.369 37.4877C84.8165 37.4413 85.1794 37.3998 85.4578 37.3634C85.7362 37.3236 85.9384 37.2639 86.0643 37.1844C86.1936 37.1015 86.2582 36.9739 86.2582 36.8016V36.7718C86.2582 36.3972 86.1472 36.1072 85.9251 35.9017C85.7031 35.6962 85.3832 35.5935 84.9656 35.5935C84.5248 35.5935 84.1751 35.6896 83.9166 35.8818C83.6614 36.0741 83.489 36.3011 83.3995 36.5629L81.7191 36.3243C81.8517 35.8603 82.0705 35.4725 82.3754 35.161C82.6803 34.8461 83.0532 34.6108 83.494 34.455C83.9348 34.2959 84.422 34.2164 84.9557 34.2164C85.3236 34.2164 85.6898 34.2594 86.0544 34.3456C86.419 34.4318 86.7521 34.5743 87.0537 34.7732C87.3553 34.9687 87.5972 35.2355 87.7795 35.5736C87.9651 35.9117 88.0579 36.3343 88.0579 36.8414V41.9521H86.3278V40.9031H86.2682C86.1588 41.1153 86.0047 41.3141 85.8058 41.4997C85.6102 41.682 85.3633 41.8295 85.065 41.9422C84.77 42.0516 84.4237 42.1063 84.026 42.1063ZM84.4933 40.7838C84.8546 40.7838 85.1678 40.7126 85.4329 40.57C85.6981 40.4242 85.9019 40.232 86.0444 39.9933C86.1903 39.7547 86.2632 39.4945 86.2632 39.2128V38.3129C86.2068 38.3593 86.1107 38.4024 85.9748 38.4422C85.8423 38.482 85.6931 38.5168 85.5274 38.5466C85.3617 38.5764 85.1976 38.603 85.0352 38.6262C84.8728 38.6494 84.7319 38.6692 84.6126 38.6858C84.3441 38.7223 84.1039 38.7819 83.8917 38.8648C83.6796 38.9477 83.5122 39.0637 83.3896 39.2128C83.267 39.3586 83.2057 39.5476 83.2057 39.7796C83.2057 40.111 83.3266 40.3612 83.5686 40.5303C83.8105 40.6993 84.1188 40.7838 84.4933 40.7838ZM84.3441 33.3115L85.4578 31.0395H87.2177L85.6915 33.3115H84.3441ZM89.8676 41.9521V34.3158H91.5878V35.6134H91.6772C91.8363 35.1759 92.0998 34.8345 92.4677 34.5892C92.8356 34.3406 93.2748 34.2164 93.7852 34.2164C94.3022 34.2164 94.7381 34.3423 95.0927 34.5942C95.4507 34.8428 95.7026 35.1825 95.8484 35.6134H95.928C96.097 35.1891 96.382 34.8511 96.7831 34.5992C97.1874 34.344 97.6664 34.2164 98.2199 34.2164C98.9225 34.2164 99.4959 34.4384 99.94 34.8825C100.384 35.3267 100.606 35.9746 100.606 36.8264V41.9521H98.8015V37.1048C98.8015 36.6309 98.6756 36.2845 98.4237 36.0658C98.1718 35.8437 97.8636 35.7327 97.499 35.7327C97.0648 35.7327 96.7251 35.8686 96.4798 36.1404C96.2379 36.4088 96.1169 36.7585 96.1169 37.1894V41.9521H94.352V37.0303C94.352 36.6359 94.2326 36.321 93.994 36.0857C93.7587 35.8503 93.4504 35.7327 93.0693 35.7327C92.8108 35.7327 92.5754 35.799 92.3633 35.9316C92.1512 36.0608 91.9822 36.2448 91.8562 36.4834C91.7303 36.7187 91.6673 36.9938 91.6673 37.3087V41.9521H89.8676ZM112.726 34.3158L110.006 41.9521H108.018L105.298 34.3158H107.217L108.972 39.9884H109.052L110.812 34.3158H112.726ZM117.523 41.9521V31.7703H121.421C122.157 31.7703 122.768 31.8863 123.256 32.1183C123.746 32.347 124.112 32.6602 124.354 33.058C124.6 33.4557 124.722 33.9065 124.722 34.4102C124.722 34.8245 124.643 35.1792 124.484 35.4742C124.324 35.7658 124.111 36.0028 123.842 36.1851C123.574 36.3674 123.274 36.4983 122.942 36.5779V36.6773C123.304 36.6972 123.65 36.8082 123.981 37.0104C124.316 37.2093 124.59 37.491 124.802 37.8556C125.014 38.2201 125.12 38.661 125.12 39.178C125.12 39.705 124.992 40.1789 124.737 40.5999C124.482 41.0175 124.097 41.3473 123.584 41.5892C123.07 41.8312 122.424 41.9521 121.645 41.9521H117.523ZM119.368 40.411H121.351C122.021 40.411 122.503 40.2834 122.798 40.0281C123.096 39.7696 123.246 39.4382 123.246 39.0338C123.246 38.7322 123.171 38.4604 123.022 38.2185C122.873 37.9732 122.661 37.781 122.386 37.6418C122.11 37.4993 121.782 37.428 121.401 37.428H119.368V40.411ZM119.368 36.1006H121.192C121.511 36.1006 121.797 36.0426 122.052 35.9266C122.308 35.8073 122.508 35.6399 122.654 35.4244C122.803 35.2057 122.878 34.9472 122.878 34.6489C122.878 34.2545 122.739 33.9297 122.46 33.6744C122.185 33.4192 121.776 33.2916 121.232 33.2916H119.368V36.1006ZM129.976 42.1013C129.23 42.1013 128.584 41.9372 128.037 41.6091C127.49 41.281 127.066 40.8219 126.764 40.232C126.466 39.642 126.317 38.9526 126.317 38.1638C126.317 37.375 126.466 36.6839 126.764 36.0906C127.066 35.4974 127.49 35.0367 128.037 34.7085C128.584 34.3804 129.23 34.2164 129.976 34.2164C130.722 34.2164 131.368 34.3804 131.915 34.7085C132.462 35.0367 132.884 35.4974 133.183 36.0906C133.484 36.6839 133.635 37.375 133.635 38.1638C133.635 38.9526 133.484 39.642 133.183 40.232C132.884 40.8219 132.462 41.281 131.915 41.6091C131.368 41.9372 130.722 42.1013 129.976 42.1013ZM129.986 40.6595C130.39 40.6595 130.728 40.5485 131 40.3264C131.272 40.1011 131.474 39.7994 131.607 39.4216C131.742 39.0438 131.81 38.6228 131.81 38.1588C131.81 37.6915 131.742 37.2689 131.607 36.8911C131.474 36.5099 131.272 36.2066 131 35.9813C130.728 35.7559 130.39 35.6432 129.986 35.6432C129.572 35.6432 129.227 35.7559 128.952 35.9813C128.68 36.2066 128.476 36.5099 128.34 36.8911C128.208 37.2689 128.141 37.6915 128.141 38.1588C128.141 38.6228 128.208 39.0438 128.34 39.4216C128.476 39.7994 128.68 40.1011 128.952 40.3264C129.227 40.5485 129.572 40.6595 129.986 40.6595ZM137.996 42.0864C137.396 42.0864 136.859 41.9323 136.386 41.624C135.912 41.3158 135.537 40.8683 135.262 40.2817C134.987 39.695 134.849 38.9825 134.849 38.1439C134.849 37.2954 134.989 36.5795 135.267 35.9962C135.549 35.4095 135.928 34.9671 136.405 34.6688C136.883 34.3672 137.415 34.2164 138.001 34.2164C138.449 34.2164 138.817 34.2926 139.105 34.445C139.393 34.5942 139.622 34.7748 139.791 34.9869C139.96 35.1958 140.091 35.393 140.184 35.5786H140.258V31.7703H142.063V41.9521H140.293V40.749H140.184C140.091 40.9346 139.957 41.1318 139.781 41.3406C139.605 41.5461 139.373 41.7218 139.085 41.8676C138.797 42.0135 138.434 42.0864 137.996 42.0864ZM138.498 40.6098C138.88 40.6098 139.204 40.5071 139.473 40.3016C139.741 40.0928 139.945 39.8028 140.084 39.4316C140.224 39.0603 140.293 38.6278 140.293 38.134C140.293 37.6401 140.224 37.2109 140.084 36.8463C139.948 36.4817 139.746 36.1984 139.478 35.9962C139.213 35.794 138.886 35.6929 138.498 35.6929C138.097 35.6929 137.763 35.7973 137.494 36.0061C137.226 36.2149 137.024 36.5033 136.888 36.8712C136.752 37.2391 136.684 37.66 136.684 38.134C136.684 38.6112 136.752 39.0371 136.888 39.4117C137.027 39.7829 137.231 40.0762 137.499 40.2916C137.771 40.5038 138.104 40.6098 138.498 40.6098ZM143.981 41.9521V34.3158H145.726V35.5885H145.805C145.945 35.1477 146.183 34.808 146.521 34.5693C146.863 34.3274 147.252 34.2064 147.69 34.2064C147.789 34.2064 147.9 34.2114 148.023 34.2213C148.149 34.228 148.253 34.2396 148.336 34.2561V35.9117C148.26 35.8852 148.139 35.8619 147.973 35.8421C147.811 35.8189 147.653 35.8073 147.501 35.8073C147.173 35.8073 146.878 35.8785 146.616 36.021C146.357 36.1602 146.153 36.3541 146.004 36.6027C145.855 36.8513 145.781 37.138 145.781 37.4628V41.9521H143.981ZM154.399 38.7405V34.3158H156.199V41.9521H154.454V40.5949H154.374C154.202 41.0225 153.918 41.3721 153.524 41.6439C153.133 41.9157 152.65 42.0516 152.077 42.0516C151.577 42.0516 151.134 41.9405 150.75 41.7185C150.369 41.4931 150.07 41.1666 149.855 40.7391C149.639 40.3082 149.532 39.7878 149.532 39.178V34.3158H151.331V38.8996C151.331 39.3835 151.464 39.768 151.729 40.053C151.994 40.338 152.342 40.4806 152.773 40.4806C153.038 40.4806 153.295 40.4159 153.544 40.2867C153.792 40.1574 153.996 39.9652 154.155 39.71C154.318 39.4514 154.399 39.1283 154.399 38.7405ZM157.95 41.9521V40.8087L161.887 35.8719V35.8073H158.079V34.3158H164.09V35.5438L160.341 40.396V40.4607H164.219V41.9521H157.95ZM160.038 31.1837L161.047 32.4564L162.056 31.1837H163.632V31.2533L161.748 33.401H160.341L158.462 31.2533V31.1837H160.038ZM168.108 42.1063C167.624 42.1063 167.188 42.0201 166.8 41.8477C166.416 41.6721 166.111 41.4136 165.886 41.0722C165.664 40.7308 165.553 40.3099 165.553 39.8094C165.553 39.3785 165.632 39.0222 165.791 38.7405C165.95 38.4588 166.167 38.2334 166.443 38.0644C166.718 37.8953 167.028 37.7677 167.372 37.6816C167.72 37.5921 168.08 37.5274 168.451 37.4877C168.898 37.4413 169.261 37.3998 169.54 37.3634C169.818 37.3236 170.02 37.2639 170.146 37.1844C170.276 37.1015 170.34 36.9739 170.34 36.8016V36.7718C170.34 36.3972 170.229 36.1072 170.007 35.9017C169.785 35.6962 169.465 35.5935 169.048 35.5935C168.607 35.5935 168.257 35.6896 167.999 35.8818C167.743 36.0741 167.571 36.3011 167.482 36.5629L165.801 36.3243C165.934 35.8603 166.153 35.4725 166.457 35.161C166.762 34.8461 167.135 34.6108 167.576 34.455C168.017 34.2959 168.504 34.2164 169.038 34.2164C169.406 34.2164 169.772 34.2594 170.136 34.3456C170.501 34.4318 170.834 34.5743 171.136 34.7732C171.437 34.9687 171.679 35.2355 171.862 35.5736C172.047 35.9117 172.14 36.3343 172.14 36.8414V41.9521H170.41V40.9031H170.35C170.241 41.1153 170.087 41.3141 169.888 41.4997C169.692 41.682 169.445 41.8295 169.147 41.9422C168.852 42.0516 168.506 42.1063 168.108 42.1063ZM168.575 40.7838C168.937 40.7838 169.25 40.7126 169.515 40.57C169.78 40.4242 169.984 40.232 170.126 39.9933C170.272 39.7547 170.345 39.4945 170.345 39.2128V38.3129C170.289 38.3593 170.193 38.4024 170.057 38.4422C169.924 38.482 169.775 38.5168 169.609 38.5466C169.444 38.5764 169.28 38.603 169.117 38.6262C168.955 38.6494 168.814 38.6692 168.695 38.6858C168.426 38.7223 168.186 38.7819 167.974 38.8648C167.762 38.9477 167.594 39.0637 167.472 39.2128C167.349 39.3586 167.288 39.5476 167.288 39.7796C167.288 40.111 167.409 40.3612 167.651 40.5303C167.893 40.6993 168.201 40.7838 168.575 40.7838ZM175.749 31.7703V41.9521H173.95V31.7703H175.749ZM177.6 41.9521V34.3158H179.4V41.9521H177.6ZM178.505 33.232C178.22 33.232 177.975 33.1375 177.769 32.9486C177.564 32.7564 177.461 32.526 177.461 32.2575C177.461 31.9858 177.564 31.7554 177.769 31.5665C177.975 31.3743 178.22 31.2781 178.505 31.2781C178.793 31.2781 179.038 31.3743 179.241 31.5665C179.446 31.7554 179.549 31.9858 179.549 32.2575C179.549 32.526 179.446 32.7564 179.241 32.9486C179.038 33.1375 178.793 33.232 178.505 33.232Z" fill="black"/>
</svg>
