<svg width="180" height="75" viewBox="0 0 180 75" fill="none" xmlns="http://www.w3.org/2000/svg">
<path d="M165.271 32.8885C165.271 42.3357 152.624 59.1549 147.079 66.0944C145.75 67.7482 143.285 67.7482 141.956 66.0944C136.313 59.1549 123.764 42.3357 123.764 32.8885C123.764 21.4264 133.055 12.1348 144.517 12.1348C155.975 12.1348 165.271 21.4264 165.271 32.8885Z" fill="#44646E"/>
<path d="M149.886 30.9863V28.1044L145.411 25.8669V24.5244H147.201V22.7343H145.411V20.9443H143.621V22.7343H141.831V24.5244H143.621V25.8669L139.146 28.1044V30.9863L135.566 32.5794V39.7394H142.726V37.0544C142.726 36.0699 143.532 35.2644 144.516 35.2644C145.501 35.2644 146.306 36.0699 146.306 37.0544V39.7394H153.466V32.5794L149.886 30.9863ZM144.516 32.1319C143.774 32.1319 143.174 31.5322 143.174 30.7894C143.174 30.0465 143.774 29.4469 144.516 29.4469C145.259 29.4469 145.859 30.0465 145.859 30.7894C145.859 31.5322 145.259 32.1319 144.516 32.1319Z" fill="#C3E0C8"/>
<path d="M10.7165 34.9899H8.85716C8.80413 34.685 8.70635 34.4148 8.56383 34.1795C8.42131 33.9409 8.24399 33.7387 8.03187 33.573C7.81975 33.4073 7.5778 33.283 7.30602 33.2001C7.03755 33.1139 6.74754 33.0708 6.43599 33.0708C5.88249 33.0708 5.39196 33.21 4.9644 33.4885C4.53684 33.7636 4.20209 34.1679 3.96014 34.7015C3.71819 35.2318 3.59721 35.8798 3.59721 36.6454C3.59721 37.4243 3.71819 38.0806 3.96014 38.6142C4.2054 39.1445 4.54016 39.5455 4.9644 39.8173C5.39196 40.0858 5.88083 40.22 6.43102 40.22C6.73594 40.22 7.02098 40.1802 7.28613 40.1007C7.5546 40.0178 7.79489 39.8968 8.00701 39.7377C8.22245 39.5787 8.40308 39.3831 8.54892 39.1511C8.69806 38.9191 8.80081 38.6539 8.85716 38.3556L10.7165 38.3656C10.6469 38.8495 10.4961 39.3036 10.2641 39.7278C10.0354 40.152 9.73547 40.5266 9.36426 40.8514C8.99305 41.1729 8.55886 41.4248 8.0617 41.6071C7.56454 41.786 7.0127 41.8755 6.40616 41.8755C5.51128 41.8755 4.71251 41.6684 4.00985 41.2541C3.3072 40.8398 2.7537 40.2415 2.34934 39.4593C1.94499 38.6771 1.74281 37.7392 1.74281 36.6454C1.74281 35.5484 1.94664 34.6104 2.35431 33.8315C2.76199 33.0493 3.31715 32.4511 4.0198 32.0368C4.72245 31.6225 5.5179 31.4153 6.40616 31.4153C6.97292 31.4153 7.49991 31.4949 7.98713 31.6539C8.47434 31.813 8.90853 32.0467 9.28968 32.3549C9.67084 32.6599 9.98405 33.0344 10.2293 33.4785C10.4779 33.9193 10.6403 34.4231 10.7165 34.9899ZM14.1258 37.2619V41.7363H12.3261V31.5545H14.086V35.3975H14.1755C14.3545 34.9667 14.6312 34.627 15.0058 34.3784C15.3836 34.1265 15.8642 34.0005 16.4475 34.0005C16.9778 34.0005 17.4402 34.1116 17.8346 34.3336C18.229 34.5557 18.5339 34.8805 18.7494 35.3081C18.9681 35.7356 19.0775 36.2576 19.0775 36.8741V41.7363H17.2778V37.1525C17.2778 36.6388 17.1452 36.2394 16.8801 35.9544C16.6182 35.666 16.2503 35.5218 15.7764 35.5218C15.4582 35.5218 15.1731 35.5914 14.9213 35.7306C14.6727 35.8665 14.4771 36.0637 14.3346 36.3223C14.1954 36.5808 14.1258 36.894 14.1258 37.2619ZM20.912 41.7363V34.1H22.657V35.3727H22.7366C22.8758 34.9319 23.1144 34.5922 23.4525 34.3535C23.7939 34.1116 24.1833 33.9906 24.6208 33.9906C24.7203 33.9906 24.8313 33.9956 24.9539 34.0055C25.0799 34.0121 25.1843 34.0237 25.2671 34.0403V35.6958C25.1909 35.6693 25.0699 35.6461 24.9042 35.6262C24.7418 35.603 24.5844 35.5914 24.4319 35.5914C24.1038 35.5914 23.8088 35.6627 23.547 35.8052C23.2884 35.9444 23.0846 36.1383 22.9355 36.3869C22.7863 36.6355 22.7117 36.9222 22.7117 37.247V41.7363H20.912ZM28.5235 41.8904C28.0396 41.8904 27.6038 41.8043 27.216 41.6319C26.8315 41.4563 26.5266 41.1977 26.3012 40.8564C26.0792 40.515 25.9681 40.094 25.9681 39.5936C25.9681 39.1627 26.0477 38.8064 26.2068 38.5247C26.3659 38.243 26.5829 38.0176 26.858 37.8485C27.1331 37.6795 27.443 37.5519 27.7877 37.4657C28.1357 37.3762 28.4954 37.3116 28.8666 37.2718C29.314 37.2254 29.6769 37.184 29.9553 37.1475C30.2338 37.1078 30.4359 37.0481 30.5619 36.9686C30.6911 36.8857 30.7558 36.7581 30.7558 36.5858V36.5559C30.7558 36.1814 30.6447 35.8914 30.4227 35.6859C30.2006 35.4804 29.8808 35.3777 29.4632 35.3777C29.0223 35.3777 28.6727 35.4738 28.4142 35.666C28.1589 35.8583 27.9866 36.0853 27.8971 36.3471L26.2167 36.1085C26.3493 35.6445 26.568 35.2567 26.873 34.9451C27.1779 34.6303 27.5508 34.3949 27.9916 34.2392C28.4324 34.0801 28.9196 34.0005 29.4532 34.0005C29.8211 34.0005 30.1874 34.0436 30.5519 34.1298C30.9165 34.216 31.2496 34.3585 31.5512 34.5574C31.8528 34.7529 32.0948 35.0197 32.2771 35.3578C32.4627 35.6958 32.5555 36.1184 32.5555 36.6255V41.7363H30.8254V40.6873H30.7657C30.6563 40.8994 30.5022 41.0983 30.3034 41.2839C30.1078 41.4662 29.8609 41.6137 29.5626 41.7264C29.2676 41.8358 28.9213 41.8904 28.5235 41.8904ZM28.9909 40.568C29.3521 40.568 29.6653 40.4967 29.9305 40.3542C30.1956 40.2084 30.3995 40.0162 30.542 39.7775C30.6878 39.5389 30.7607 39.2787 30.7607 38.997V38.0971C30.7044 38.1435 30.6083 38.1866 30.4724 38.2264C30.3398 38.2662 30.1907 38.301 30.0249 38.3308C29.8592 38.3606 29.6952 38.3871 29.5328 38.4103C29.3704 38.4335 29.2295 38.4534 29.1102 38.47C28.8417 38.5065 28.6014 38.5661 28.3893 38.649C28.1772 38.7318 28.0098 38.8478 27.8872 38.997C27.7645 39.1428 27.7032 39.3317 27.7032 39.5637C27.7032 39.8952 27.8242 40.1454 28.0661 40.3145C28.3081 40.4835 28.6163 40.568 28.9909 40.568ZM28.8417 33.0957L29.9553 30.8237H31.7153L30.189 33.0957H28.8417ZM34.3651 41.7363V34.1H36.0853V35.3975H36.1748C36.3339 34.96 36.5974 34.6187 36.9653 34.3734C37.3332 34.1248 37.7723 34.0005 38.2828 34.0005C38.7998 34.0005 39.2356 34.1265 39.5903 34.3784C39.9482 34.627 40.2001 34.9667 40.346 35.3975H40.4255C40.5945 34.9733 40.8796 34.6352 41.2806 34.3833C41.685 34.1281 42.1639 34.0005 42.7174 34.0005C43.4201 34.0005 43.9935 34.2226 44.4376 34.6667C44.8817 35.1109 45.1038 35.7588 45.1038 36.6106V41.7363H43.2991V36.889C43.2991 36.4151 43.1731 36.0687 42.9213 35.85C42.6694 35.6279 42.3611 35.5169 41.9965 35.5169C41.5624 35.5169 41.2226 35.6528 40.9774 35.9245C40.7354 36.193 40.6144 36.5427 40.6144 36.9735V41.7363H38.8495V36.8145C38.8495 36.42 38.7302 36.1052 38.4916 35.8699C38.2562 35.6345 37.948 35.5169 37.5669 35.5169C37.3083 35.5169 37.073 35.5832 36.8609 35.7157C36.6488 35.845 36.4797 36.0289 36.3538 36.2676C36.2278 36.5029 36.1649 36.778 36.1649 37.0929V41.7363H34.3651ZM57.2233 34.1L54.5038 41.7363H52.5152L49.7957 34.1H51.7148L53.4697 39.7725H53.5493L55.3092 34.1H57.2233ZM62.0209 41.7363V31.5545H63.8653V40.1902H68.3497V41.7363H62.0209ZM74.7382 38.5247V34.1H76.5379V41.7363H74.7929V40.3791H74.7133C74.541 40.8066 74.2576 41.1563 73.8632 41.4281C73.4721 41.6999 72.9898 41.8358 72.4165 41.8358C71.916 41.8358 71.4735 41.7247 71.089 41.5027C70.7079 41.2773 70.4096 40.9508 70.1942 40.5233C69.9787 40.0924 69.871 39.572 69.871 38.9622V34.1H71.6707V38.6838C71.6707 39.1677 71.8033 39.5521 72.0684 39.8372C72.3336 40.1222 72.6816 40.2647 73.1125 40.2647C73.3776 40.2647 73.6345 40.2001 73.8831 40.0708C74.1317 39.9416 74.3355 39.7493 74.4946 39.4941C74.657 39.2356 74.7382 38.9125 74.7382 38.5247ZM80.0292 39.34L80.0242 37.1674H80.3126L83.0569 34.1H85.1599L81.7842 37.8585H81.4113L80.0292 39.34ZM78.3886 41.7363V31.5545H80.1883V41.7363H78.3886ZM83.1812 41.7363L80.6954 38.2612L81.9085 36.9934L85.3339 41.7363H83.1812ZM89.3758 41.8855C88.6301 41.8855 87.9838 41.7214 87.4369 41.3933C86.89 41.0652 86.4658 40.6061 86.1642 40.0162C85.8659 39.4262 85.7167 38.7368 85.7167 37.948C85.7167 37.1591 85.8659 36.4681 86.1642 35.8748C86.4658 35.2815 86.89 34.8208 87.4369 34.4927C87.9838 34.1646 88.6301 34.0005 89.3758 34.0005C90.1215 34.0005 90.7678 34.1646 91.3147 34.4927C91.8616 34.8208 92.2842 35.2815 92.5825 35.8748C92.8841 36.4681 93.0349 37.1591 93.0349 37.948C93.0349 38.7368 92.8841 39.4262 92.5825 40.0162C92.2842 40.6061 91.8616 41.0652 91.3147 41.3933C90.7678 41.7214 90.1215 41.8855 89.3758 41.8855ZM89.3857 40.4437C89.7901 40.4437 90.1282 40.3327 90.3999 40.1106C90.6717 39.8852 90.8739 39.5836 91.0065 39.2058C91.1424 38.8279 91.2103 38.407 91.2103 37.943C91.2103 37.4757 91.1424 37.0531 91.0065 36.6752C90.8739 36.2941 90.6717 35.9908 90.3999 35.7654C90.1282 35.5401 89.7901 35.4274 89.3857 35.4274C88.9714 35.4274 88.6267 35.5401 88.3517 35.7654C88.0799 35.9908 87.876 36.2941 87.7401 36.6752C87.6076 37.0531 87.5413 37.4757 87.5413 37.943C87.5413 38.407 87.6076 38.8279 87.7401 39.2058C87.876 39.5836 88.0799 39.8852 88.3517 40.1106C88.6267 40.3327 88.9714 40.4437 89.3857 40.4437ZM101.124 34.1L98.4042 41.7363H96.4156L93.6961 34.1H95.6151L97.3701 39.7725H97.4497L99.2096 34.1H101.124ZM105.49 41.8855C104.724 41.8855 104.063 41.7264 103.506 41.4082C102.953 41.0867 102.527 40.6326 102.229 40.046C101.93 39.456 101.781 38.7617 101.781 37.9629C101.781 37.1774 101.93 36.488 102.229 35.8947C102.53 35.2981 102.951 34.8341 103.491 34.5027C104.032 34.1679 104.666 34.0005 105.396 34.0005C105.866 34.0005 106.31 34.0768 106.728 34.2292C107.149 34.3784 107.52 34.6104 107.842 34.9252C108.166 35.2401 108.422 35.6412 108.607 36.1284C108.793 36.6123 108.886 37.189 108.886 37.8585V38.4103H102.626V37.1973H107.16C107.157 36.8526 107.083 36.546 106.937 36.2775C106.791 36.0057 106.587 35.792 106.325 35.6362C106.067 35.4804 105.765 35.4025 105.42 35.4025C105.052 35.4025 104.729 35.492 104.451 35.671C104.172 35.8466 103.955 36.0787 103.8 36.367C103.647 36.652 103.569 36.9653 103.566 37.3066V38.3656C103.566 38.8097 103.647 39.1909 103.81 39.5091C103.972 39.8239 104.199 40.0659 104.491 40.2349C104.782 40.4006 105.124 40.4835 105.515 40.4835C105.777 40.4835 106.014 40.447 106.226 40.3741C106.438 40.2979 106.622 40.1868 106.778 40.041C106.933 39.8952 107.051 39.7145 107.131 39.4991L108.811 39.688C108.705 40.1322 108.503 40.5199 108.204 40.8514C107.909 41.1795 107.532 41.4347 107.071 41.617C106.61 41.796 106.083 41.8855 105.49 41.8855Z" fill="black"/>
</svg>
