<svg width="25" height="25" viewBox="0 0 25 25" fill="none" xmlns="http://www.w3.org/2000/svg">
<path d="M12.819 0.826172C7.57902 0.826172 3.13902 4.18617 1.49902 8.82617H24.139C22.499 4.18617 18.059 0.826172 12.819 0.826172Z" fill="#FCFCFC"/>
<path d="M12.819 24.8262C18.059 24.8262 22.499 21.5062 24.139 16.8262H1.49902C3.13902 21.5062 7.57902 24.8262 12.819 24.8262Z" fill="#ED4C5C"/>
<path d="M1.49934 8.82617C1.05934 10.0662 0.819336 11.4262 0.819336 12.8262C0.819336 14.2262 1.05934 15.5862 1.49934 16.8262H24.1393C24.5793 15.5862 24.8193 14.2262 24.8193 12.8262C24.8193 11.4262 24.5793 10.0662 24.1393 8.82617H1.49934Z" fill="#428BC1"/>
<path d="M13.5791 7.62616H5.61914V13.1462C5.61914 16.8262 9.45914 17.9462 9.61914 18.0262C9.77914 17.9462 13.6191 16.8262 13.6191 13.1462V7.62616H13.5791Z" fill="#FCFCFC"/>
<path d="M6.41895 8.42618V13.1862C6.41895 15.4262 8.13895 16.6262 9.61895 17.2262C11.0989 16.6262 12.8189 15.4262 12.8189 13.1862V8.42618H6.41895Z" fill="#ED4C5C"/>
<path d="M9.21875 9.22626H10.0188V14.8263H9.21875V9.22626Z" fill="#FCFCFC"/>
<path d="M7.61914 11.6263H11.6191V12.4263H7.61914V11.6263ZM8.41914 10.0263H10.8191V10.8263H8.41914V10.0263Z" fill="#FCFCFC"/>
<path d="M9.6193 14.0262C9.0993 14.0262 8.6193 14.2662 8.3393 14.6662C8.1393 14.5062 7.8993 14.4262 7.6193 14.4262C7.2993 14.4262 6.9793 14.5462 6.7793 14.7862C7.3393 16.0262 8.5393 16.7862 9.6193 17.2262C10.6993 16.7862 11.8993 16.0262 12.4593 14.7862C12.2593 14.5462 11.9393 14.4262 11.6193 14.4262C11.3393 14.4262 11.0993 14.5062 10.8993 14.6662C10.6193 14.2662 10.1393 14.0262 9.6193 14.0262Z" fill="#428BC1"/>
</svg>
